<svg width="584" height="494" viewBox="0 0 730 620" fill="none" xmlns="http://www.w3.org/2000/svg">
<g filter="url(#filter0_d_618_92)">
<path d="M253.808 496.659V499.524L307.693 506.778L375.016 519.898C375.016 519.898 378.643 516.942 371.834 511.81C365.024 506.678 327.332 500.087 308.183 503.731C308.183 503.677 288.716 489.85 253.808 496.659Z" fill="#EDEDED" stroke="#DDDDDD" stroke-width="0.906706" stroke-linecap="round" stroke-linejoin="round"/>
<path d="M247.651 497.475C247.651 497.475 289.94 495.435 302.779 505.744C308.219 510.096 312.336 506.796 318.51 506.651C324.685 506.506 358.025 502.779 376.54 521.267L410.813 493.748C410.813 493.748 390.294 471.335 353.935 484.745C353.935 484.745 343.055 471.57 303.704 478.217C303.359 478.706 247.651 497.475 247.651 497.475Z" fill="#F9F9F9" stroke="#EDEDED" stroke-width="0.906706" stroke-linecap="round" stroke-linejoin="round"/>
<path d="M353.945 484.772L306.742 503.677" stroke="#EDEDED" stroke-width="0.906706" stroke-linecap="round" stroke-linejoin="round"/>
<path d="M646.548 230.877V499.96C600.097 486.441 537.743 477.61 469.74 472.387V230.877H646.548Z" fill="#F9F9F9" stroke="#DDDDDD" stroke-width="0.906706" stroke-linecap="round" stroke-linejoin="round"/>
<path d="M646.548 304.419H633.627V350.281" stroke="#EDEDED" stroke-width="0.906706" stroke-linecap="round" stroke-linejoin="round"/>
<path d="M560.973 347.307V301.564L549.439 302.244V349.302" stroke="#EDEDED" stroke-width="0.906706" stroke-linecap="round" stroke-linejoin="round"/>
<path d="M536.917 352.43V305.598L549.439 305.136" stroke="#EDEDED" stroke-width="0.906706" stroke-linecap="round" stroke-linejoin="round"/>
<path d="M527.207 352.429L526.545 310.349H536.918V352.429" fill="#EDEDED"/>
<path d="M527.207 352.429L526.545 310.349H536.918V352.429" stroke="#DDDDDD" stroke-width="0.906706" stroke-linecap="round" stroke-linejoin="round"/>
<path d="M481.898 352.429L469.712 311.428L479.151 309.234" stroke="#DDDDDD" stroke-width="0.68003" stroke-linecap="round" stroke-linejoin="round"/>
<path d="M491.637 352.248C491.528 352.43 477.81 304.556 477.81 304.556L488.917 303.758L503.669 352.43" fill="#EDEDED"/>
<path d="M491.637 352.248C491.528 352.43 477.81 304.556 477.81 304.556L488.917 303.758L503.669 352.43" stroke="#DDDDDD" stroke-width="0.906706" stroke-linecap="round" stroke-linejoin="round"/>
<path d="M492.751 316.398L506.886 314.793L522.999 352.43" stroke="#DDDDDD" stroke-width="0.68003" stroke-linecap="round" stroke-linejoin="round"/>
<path d="M534.479 284.155C534.605 284.155 546.674 238.548 546.674 238.548L554.834 239.69L543.419 284.119" fill="#DDDDDD"/>
<path d="M534.479 284.155C534.605 284.155 546.674 238.548 546.674 238.548L554.834 239.69L543.419 284.119" stroke="#DDDDDD" stroke-width="0.906706" stroke-miterlimit="10"/>
<path d="M556.628 283.048L556.293 235.337H570.628L569.984 281.344" fill="#F9F9F9"/>
<path d="M556.628 283.048L556.293 235.337H570.628L569.984 281.344" stroke="#DDDDDD" stroke-width="0.68003" stroke-linecap="round" stroke-linejoin="round"/>
<path d="M570.583 238.548H587.149L585.988 281.816" fill="#F9F9F9"/>
<path d="M570.583 238.548H587.149L585.988 281.816" stroke="#DDDDDD" stroke-width="0.68003" stroke-linecap="round" stroke-linejoin="round"/>
<path d="M623.862 234.332L635.704 235.338L622.647 284.155L612.909 280.8L623.862 234.332Z" stroke="#EDEDED" stroke-width="0.906706" stroke-linecap="round" stroke-linejoin="round"/>
<path d="M634.842 283.693L646.547 240.869L634.842 238.548L622.646 284.155" fill="#EDEDED"/>
<path d="M634.842 283.693L646.547 240.869L634.842 238.548L622.646 284.155" stroke="#DDDDDD" stroke-width="0.906706" stroke-linecap="round" stroke-linejoin="round"/>
<path d="M521.35 271.833H528.086V284.155" stroke="#EDEDED" stroke-width="0.906706" stroke-linecap="round" stroke-linejoin="round"/>
<path d="M480.611 272.685L480.911 284.154" stroke="#EDEDED" stroke-width="0.906706" stroke-linecap="round" stroke-linejoin="round"/>
<path d="M529.91 256.319H480.911V264.144H529.91V256.319Z" stroke="#EDEDED" stroke-width="0.906706" stroke-linecap="round" stroke-linejoin="round"/>
<path d="M480.909 264.144H474.698V272.803L521.348 271.832V264.144" fill="#EDEDED"/>
<path d="M480.909 264.144H474.698V272.803L521.348 271.832V264.144" stroke="#DDDDDD" stroke-width="0.906706" stroke-linecap="round" stroke-linejoin="round"/>
<path d="M646.547 284.155H469.712V296.141H646.547V284.155Z" stroke="#DDDDDD" stroke-width="0.906706" stroke-linecap="round" stroke-linejoin="round"/>
<path d="M646.547 352.429H469.712V364.415H646.547V352.429Z" stroke="#DDDDDD" stroke-width="0.906706" stroke-linecap="round" stroke-linejoin="round"/>
<path d="M659.549 215.091V504.004C655.366 502.607 651.032 501.259 646.547 499.96C600.097 486.441 537.742 477.609 469.739 472.387C465.436 472.048 461.102 471.731 456.737 471.435V215.091H659.549Z" stroke="#DDDDDD" stroke-width="1.81341" stroke-linecap="round" stroke-linejoin="round"/>
<path d="M1 486.867C16.822 483.158 39.5894 479.722 67.3618 476.766C78.2423 475.605 89.9479 474.517 102.297 473.511C107.133 473.124 112.059 472.743 117.077 472.368C120.625 472.114 124.221 471.867 127.866 471.625C138.191 470.93 148.854 470.292 159.855 469.712C210.367 467.073 267.209 465.786 324.93 466.402C328.52 466.438 332.117 466.487 335.72 466.547C342.973 466.644 350.203 466.78 357.408 466.955C364.873 467.137 372.332 467.345 379.786 467.581C405.772 468.424 431.586 469.684 456.71 471.434C461.069 471.731 465.403 472.048 469.713 472.386L472.723 472.622C496.225 474.436 518.965 476.739 540.671 479.504C576.378 484.038 609.028 489.895 636.782 497.239C640.119 498.128 643.386 499.035 646.584 499.959C651.069 501.265 655.403 502.613 659.586 504.003C675 509.144 688.31 514.884 699 521.294" stroke="#DDDDDD" stroke-width="1.81341" stroke-linecap="round" stroke-linejoin="round"/>
<path d="M324.929 163.245V466.402C254.668 465.659 185.686 467.735 127.865 471.625V163.245H324.929Z" fill="#F9F9F9" stroke="#DDDDDD" stroke-width="0.906706" stroke-linecap="round" stroke-linejoin="round"/>
<path d="M261.986 447.87L276.974 402.181L285.633 403.033L272.468 447.788" stroke="#EDEDED" stroke-width="0.906706" stroke-linecap="round" stroke-linejoin="round"/>
<path d="M284.301 447.788L299.515 392.134H288.925L285.634 403.033" stroke="#EDEDED" stroke-width="0.906706" stroke-linecap="round" stroke-linejoin="round"/>
<path d="M294.728 447.788L305.88 400.957L297.249 400.422L284.301 447.788" fill="#EDEDED"/>
<path d="M294.728 447.788L305.88 400.957L297.249 400.422L284.301 447.788" stroke="#DDDDDD" stroke-width="0.906706" stroke-linecap="round" stroke-linejoin="round"/>
<path d="M324.929 390.683C324.929 390.901 307.901 390.683 307.901 390.683L308.527 447.334" stroke="#EDEDED" stroke-width="0.906706" stroke-linecap="round" stroke-linejoin="round"/>
<path d="M256.012 327.74H268.95L279.314 371.489H267.69" fill="#EDEDED"/>
<path d="M256.012 327.74H268.95L279.314 371.489H267.69" stroke="#DDDDDD" stroke-width="0.906706" stroke-linecap="round" stroke-linejoin="round"/>
<path d="M289.676 323.197H279.312C279.312 323.197 280.165 371.533 281.072 371.533H291.045" fill="#F9F9F9"/>
<path d="M289.676 323.197H279.312C279.312 323.197 280.165 371.533 281.072 371.533H291.045" stroke="#DDDDDD" stroke-width="0.906706" stroke-linecap="round" stroke-linejoin="round"/>
<path d="M291.047 371.533C290.422 370.771 289.66 315.082 289.66 315.082H302.127V371.533" fill="#F9F9F9"/>
<path d="M291.047 371.533C290.422 370.771 289.66 315.082 289.66 315.082H302.127V371.533" stroke="#DDDDDD" stroke-width="0.906706" stroke-linecap="round" stroke-linejoin="round"/>
<path d="M310.993 371.533L323.687 324.212L314.62 321.093C314.62 321.093 302.099 364.071 302.099 364.425V371.533" fill="#EDEDED"/>
<path d="M310.993 371.533L323.687 324.212L314.62 321.093C314.62 321.093 302.099 364.071 302.099 364.425V371.533" stroke="#DDDDDD" stroke-width="0.906706" stroke-linecap="round" stroke-linejoin="round"/>
<path d="M257.86 371.489L244.323 321.828L254.37 320.196L267.689 371.489" fill="#F9F9F9"/>
<path d="M257.86 371.489L244.323 321.828L254.37 320.196L267.689 371.489" stroke="#DDDDDD" stroke-width="0.906706" stroke-linecap="round" stroke-linejoin="round"/>
<path d="M200.848 347.815L196.731 347.506V352.167" stroke="#EDEDED" stroke-width="0.906706" stroke-linecap="round" stroke-linejoin="round"/>
<path d="M243.008 349.836L242.637 357.217" stroke="#EDEDED" stroke-width="0.906706" stroke-linecap="round" stroke-linejoin="round"/>
<path d="M203.187 338.394L202.135 329.916H243.471V338.394" stroke="#EDEDED" stroke-width="0.906706" stroke-linecap="round" stroke-linejoin="round"/>
<path d="M200.847 347.815L200.167 338.394H246.572L247.107 349.927L200.847 347.815Z" fill="#DDDDDD" stroke="#DDDDDD" stroke-width="0.906706" stroke-miterlimit="10"/>
<path d="M200.167 356.065L245.185 357.217V371.489" stroke="#EDEDED" stroke-width="0.906706" stroke-linecap="round" stroke-linejoin="round"/>
<path d="M212.281 266.284H157.435V275.07H212.281V266.284Z" stroke="#DDDDDD" stroke-width="0.68003" stroke-linecap="round" stroke-linejoin="round"/>
<path d="M209.741 294.999C210.195 295.833 209.741 282.777 209.741 282.777L165.113 282.169V295.181" stroke="#DDDDDD" stroke-width="0.68003" stroke-linecap="round" stroke-linejoin="round"/>
<path d="M207.059 275.069V282.74" stroke="#DDDDDD" stroke-width="0.68003" stroke-linecap="round" stroke-linejoin="round"/>
<path d="M217.322 295.252L219.217 234.902L233.335 235.718L232.12 295.189" fill="#EDEDED"/>
<path d="M217.322 295.252L219.217 234.902L233.335 235.718L232.12 295.189" stroke="#DDDDDD" stroke-width="0.906706" stroke-linecap="round" stroke-linejoin="round"/>
<path d="M233.262 239.209H245.031L243.961 295.189" stroke="#DDDDDD" stroke-width="0.68003" stroke-linecap="round" stroke-linejoin="round"/>
<path d="M168.215 275.668L168.668 282.215" stroke="#DDDDDD" stroke-width="0.68003" stroke-linecap="round" stroke-linejoin="round"/>
<path d="M127.865 244.967H140.577L142.817 295.253" stroke="#EDEDED" stroke-width="0.906706" stroke-linecap="round" stroke-linejoin="round"/>
<path d="M153.399 294.999L151.921 248.993L140.732 248.395" stroke="#EDEDED" stroke-width="0.906706" stroke-linecap="round" stroke-linejoin="round"/>
<path d="M245.031 295.189L257.553 243.452L270.7 246.462" stroke="#EDEDED" stroke-width="0.906706" stroke-linecap="round" stroke-linejoin="round"/>
<path d="M257.307 295.189L272.494 239.209L285.496 244.305L272.14 295.189" stroke="#EDEDED" stroke-width="0.906706" stroke-linecap="round" stroke-linejoin="round"/>
<path d="M303.859 295.252L303.079 234.902L285.57 234.24V295.252" stroke="#EDEDED" stroke-width="0.906706" stroke-linecap="round" stroke-linejoin="round"/>
<path d="M318.856 295.253L317.94 239.808H303.079L304.358 295.253" fill="#EDEDED"/>
<path d="M318.856 295.253L317.94 239.808H303.079L304.358 295.253" stroke="#DDDDDD" stroke-width="0.906706" stroke-linecap="round" stroke-linejoin="round"/>
<path d="M324.93 295.18H127.857V307.175H324.93V295.18Z" stroke="#DDDDDD" stroke-width="0.906706" stroke-linecap="round" stroke-linejoin="round"/>
<path d="M324.93 371.488H127.857V383.475H324.93V371.488Z" stroke="#DDDDDD" stroke-width="0.906706" stroke-linecap="round" stroke-linejoin="round"/>
<path d="M324.93 447.789H127.857V459.784H324.93V447.789Z" stroke="#DDDDDD" stroke-width="1.81341" stroke-linecap="round" stroke-linejoin="round"/>
<path d="M335.72 147.958V466.547C332.093 466.486 328.497 466.438 324.93 466.402C254.67 465.658 185.688 467.735 127.867 471.624C124.24 471.86 120.644 472.108 117.077 472.368V147.958H335.72Z" stroke="#DDDDDD" stroke-width="1.81341" stroke-linecap="round" stroke-linejoin="round"/>
<path d="M250.082 169.466L248.069 175.776L234.315 218.89H225.9L242.321 167.38L250.082 169.466Z" stroke="#DDDDDD" stroke-width="0.68003" stroke-linecap="round" stroke-linejoin="round"/>
<path d="M248.077 175.776L259.828 178.895L247.651 218.89" stroke="#DDDDDD" stroke-width="0.68003" stroke-linecap="round" stroke-linejoin="round"/>
<path d="M260.11 163.254L259.112 218.88" stroke="#DDDDDD" stroke-width="0.68003" stroke-linecap="round" stroke-linejoin="round"/>
<path d="M264.443 167.715H276.348" stroke="#DDDDDD" stroke-width="0.68003" stroke-linecap="round" stroke-linejoin="round"/>
<path d="M279.875 163.254V218.88" stroke="#DDDDDD" stroke-width="0.68003" stroke-linecap="round" stroke-linejoin="round"/>
<path d="M279.875 192.705L287.854 218.881" stroke="#DDDDDD" stroke-width="0.68003" stroke-linecap="round" stroke-linejoin="round"/>
<path d="M295.09 218.881L303.078 215.536L286.857 173.718L279.875 175.776" stroke="#DDDDDD" stroke-width="0.68003" stroke-linecap="round" stroke-linejoin="round"/>
<path d="M301.601 216.151L302.589 218.881H306.026L311.91 215.907L301.456 179.874L290.349 182.721" stroke="#DDDDDD" stroke-width="0.68003" stroke-linecap="round" stroke-linejoin="round"/>
<path d="M324.93 218.881H127.857V230.868H324.93V218.881Z" stroke="#DDDDDD" stroke-width="0.906706" stroke-linecap="round" stroke-linejoin="round"/>
<path d="M149.427 218.89H140.269L127.865 178.913L137.739 175.776L149.517 213.604" stroke="#EDEDED" stroke-width="0.906706" stroke-linecap="round" stroke-linejoin="round"/>
<path d="M162.049 218.89H149.428L149.518 213.603L150.307 168.567H161.133L161.396 182.522L162.085 218.89" stroke="#EDEDED" stroke-width="0.906706" stroke-linecap="round" stroke-linejoin="round"/>
<path d="M187.882 218.89H173.501L172.857 179.403L172.667 167.779L185.316 167.38C185.316 167.38 185.433 169.729 185.615 173.483C186.159 184.753 187.328 208.554 187.882 218.89Z" stroke="#EDEDED" stroke-width="0.906706" stroke-linecap="round" stroke-linejoin="round"/>
<path d="M162.048 218.89L161.396 182.522L161.296 176.683L172.856 179.403H172.865L173.5 218.89H162.085" fill="#EDEDED"/>
<path d="M162.048 218.89L161.396 182.522L161.296 176.683L172.856 179.403H172.865L173.5 218.89H162.085" stroke="#DDDDDD" stroke-width="0.906706" stroke-linecap="round" stroke-linejoin="round"/>
<path d="M187.881 218.89H200.439L199.333 175.776L199.278 173.482H185.614L187.881 218.89Z" fill="#EDEDED" stroke="#DDDDDD" stroke-width="0.906706" stroke-linecap="round" stroke-linejoin="round"/>
<path d="M199.333 175.776H213.142L213.568 218.89H200.439" stroke="#EDEDED" stroke-width="0.906706" stroke-linecap="round" stroke-linejoin="round"/>
<path d="M468.516 531.586L533.962 506.633L598.909 513.887C598.909 513.887 603.361 515.447 601.257 520.932L537.008 552.875L468.516 531.586Z" fill="#F9F9F9" stroke="#EDEDED" stroke-width="0.906706" stroke-linecap="round" stroke-linejoin="round"/>
<path d="M537.778 544.397C537.778 544.397 580.221 524.622 598.908 513.923Z" fill="#F9F9F9"/>
<path d="M537.778 544.397C537.778 544.397 580.221 524.622 598.908 513.923" stroke="#EDEDED" stroke-width="0.906706" stroke-linecap="round" stroke-linejoin="round"/>
<path d="M468.516 531.585C468.516 531.585 533.962 541.215 537.779 544.397C539.52 545.848 539.674 553.319 535.866 552.83C532.058 552.34 468.516 542.774 468.516 542.774C468.516 542.774 477.827 538.531 468.516 531.585Z" fill="#EDEDED" stroke="#DDDDDD" stroke-width="0.906706" stroke-linecap="round" stroke-linejoin="round"/>
<path d="M555.047 191.551C572.391 188.013 583.584 171.084 580.045 153.74C576.507 136.395 559.578 125.203 542.233 128.741C524.889 132.279 513.696 149.208 517.235 166.553C520.773 183.897 537.702 195.09 555.047 191.551Z" stroke="#EDEDED" stroke-width="1.81341" stroke-linecap="round" stroke-linejoin="round"/>
<path d="M564.155 169.129L552.422 160.697C552.454 160.508 552.472 160.317 552.477 160.126C552.475 159.431 552.284 158.751 551.924 158.156C551.565 157.562 551.051 157.077 550.436 156.753C550.228 152.373 549.847 144.367 549.484 136.86C549.412 135.309 547.925 135.318 547.861 136.86L546.955 156.662C546.185 157.044 545.566 157.674 545.198 158.451C544.83 159.227 544.734 160.105 544.925 160.943C545.117 161.781 545.585 162.53 546.254 163.069C546.923 163.608 547.755 163.906 548.614 163.916C549.42 163.916 550.204 163.659 550.854 163.181L563.239 170.435C564.608 171.296 565.424 170.036 564.155 169.129Z" fill="#DDDDDD" stroke="#DDDDDD" stroke-width="0.906706" stroke-miterlimit="10"/>
<path d="M225.999 501.356L314.621 518.058C314.621 518.058 308.546 527.95 316.434 530.861L252.466 548.342C252.466 548.342 170.763 529.582 167.816 528.295C164.869 527.007 161.687 520.851 169.049 518.457C176.412 516.063 225.999 501.356 225.999 501.356Z" fill="#F9F9F9" stroke="#DDDDDD" stroke-width="0.906706" stroke-linecap="round" stroke-linejoin="round"/>
<path d="M252.465 548.342C249.156 547.952 246.962 540.807 253.608 538.368C260.009 536.011 314.584 518.094 314.584 518.094" fill="#F9F9F9"/>
<path d="M252.465 548.342C249.156 547.952 246.962 540.807 253.608 538.368C260.009 536.011 314.584 518.094 314.584 518.094" stroke="#EDEDED" stroke-width="0.906706" stroke-linecap="round" stroke-linejoin="round"/>
<path d="M179.901 523.244L239.499 537.452" stroke="#DDDDDD" stroke-width="0.906706" stroke-linecap="round" stroke-linejoin="round"/>
<path d="M53.4258 527.179C62.8555 524.994 61.16 522.002 58.6937 516.217C56.2275 510.432 48.72 504.756 37.0144 507.222C25.3088 509.688 25.3088 520.895 34.4484 524.096C43.588 527.297 48.6474 528.285 53.4258 527.179Z" fill="#F9F9F9" stroke="#EDEDED" stroke-width="0.906706" stroke-linecap="round" stroke-linejoin="round"/>
<path d="M55.5654 518.847C56.6806 520.974 57.5914 523.202 58.2855 525.502Z" fill="#F9F9F9"/>
<path d="M55.5654 518.847C56.6806 520.974 57.5914 523.202 58.2855 525.502" stroke="#DDDDDD" stroke-width="0.906706" stroke-linecap="round" stroke-linejoin="round"/>
<path d="M51.3857 515.583C52.2151 516.851 53.159 518.041 54.2055 519.137C55.4024 520.325 56.6808 519.853 56.4451 518.593C56.0025 516.607 55.0671 514.764 53.725 513.234C53.4038 512.98 53.0005 512.854 52.5918 512.878C52.1832 512.902 51.7977 513.076 51.5088 513.366C51.2199 513.656 51.0477 514.042 51.025 514.451C51.0023 514.86 51.1307 515.262 51.3857 515.583V515.583Z" fill="#F9F9F9" stroke="#DDDDDD" stroke-width="0.906706" stroke-linecap="round" stroke-linejoin="round"/>
<path d="M463.483 56V166.7C463.018 167.035 462.64 167.474 462.379 167.983C462.117 168.492 461.98 169.056 461.978 169.628V172.648C461.98 173.22 462.117 173.784 462.379 174.293C462.64 174.802 463.018 175.242 463.483 175.576V179.874H467.735V175.576C468.198 175.241 468.574 174.8 468.834 174.291C469.094 173.782 469.23 173.219 469.231 172.648V169.628C469.23 169.057 469.094 168.494 468.834 167.985C468.574 167.476 468.198 167.036 467.735 166.7V56" fill="#EDEDED"/>
<path d="M463.483 56V166.7C463.018 167.035 462.64 167.474 462.379 167.983C462.117 168.492 461.98 169.056 461.978 169.628V172.648C461.98 173.22 462.117 173.784 462.379 174.293C462.64 174.802 463.018 175.242 463.483 175.576V179.874H467.735V175.576C468.198 175.241 468.574 174.8 468.834 174.291C469.094 173.782 469.23 173.219 469.231 172.648V169.628C469.23 169.057 469.094 168.494 468.834 167.985C468.574 167.476 468.198 167.036 467.735 166.7V56" stroke="#DDDDDD" stroke-width="1.81341" stroke-linecap="round" stroke-linejoin="round"/>
<path d="M279.622 56V166.7C279.16 167.036 278.783 167.476 278.523 167.985C278.263 168.494 278.127 169.057 278.126 169.628V172.648C278.127 173.219 278.263 173.782 278.523 174.291C278.783 174.8 279.16 175.241 279.622 175.576V179.874H283.874V175.576C284.339 175.242 284.717 174.802 284.979 174.293C285.24 173.784 285.378 173.22 285.38 172.648V169.628C285.378 169.056 285.24 168.492 284.979 167.983C284.717 167.474 284.339 167.035 283.874 166.7V56" fill="#EDEDED"/>
<path d="M279.622 56V166.7C279.16 167.036 278.783 167.476 278.523 167.985C278.263 168.494 278.127 169.057 278.126 169.628V172.648C278.127 173.219 278.263 173.782 278.523 174.291C278.783 174.8 279.16 175.241 279.622 175.576V179.874H283.874V175.576C284.339 175.242 284.717 174.802 284.979 174.293C285.24 173.784 285.378 173.22 285.38 172.648V169.628C285.378 169.056 285.24 168.492 284.979 167.983C284.717 167.474 284.339 167.035 283.874 166.7V56" stroke="#DDDDDD" stroke-width="1.81341" stroke-linecap="round" stroke-linejoin="round"/>
<path d="M476.658 170.753H270.699V183.592H476.658V170.753Z" fill="#EDEDED" stroke="#DDDDDD" stroke-width="1.81341" stroke-linecap="round" stroke-linejoin="round"/>
<path d="M479.451 174.062H476.658V180.291H479.451V174.062Z" fill="#F9F9F9" stroke="#DDDDDD" stroke-width="0.906706" stroke-linecap="round" stroke-linejoin="round"/>
<path d="M467.817 183.592H279.531C277.903 183.592 276.584 184.911 276.584 186.539V186.72C276.584 188.347 277.903 189.667 279.531 189.667H467.817C469.445 189.667 470.764 188.347 470.764 186.72V186.539C470.764 184.911 469.445 183.592 467.817 183.592Z" fill="#F9F9F9" stroke="#DDDDDD" stroke-width="0.906706" stroke-linecap="round" stroke-linejoin="round"/>
<path d="M453.564 520.569L518.004 494.981L581.954 501.573C581.954 501.573 586.288 506.614 583.341 512.345L521.005 541.142L453.564 520.569Z" fill="#F9F9F9" stroke="#DDDDDD" stroke-width="0.906706" stroke-linecap="round" stroke-linejoin="round"/>
<path d="M521.767 532.674C521.767 532.674 573.757 508.909 581.954 501.574Z" fill="#F9F9F9"/>
<path d="M521.767 532.674C521.767 532.674 573.757 508.909 581.954 501.574" stroke="#DDDDDD" stroke-width="0.906706" stroke-linecap="round" stroke-linejoin="round"/>
<path d="M453.564 520.569C453.564 520.569 518.004 529.528 521.767 532.674C523.472 534.106 523.635 541.578 519.872 541.124C516.109 540.671 453.564 531.758 453.564 531.758C453.564 531.758 462.695 527.424 453.564 520.569Z" fill="#F9F9F9" stroke="#EDEDED" stroke-width="0.906706" stroke-linecap="round" stroke-linejoin="round"/>
</g>
<g filter="url(#filter1_d_618_92)">
<path d="M201.701 411.429C209.453 421.176 228.557 460.391 213.66 471.879C193.06 487.765 169.232 443.862 164.861 431.078L201.701 411.429Z" fill="#FEBD9D"/>
<path d="M203.859 409.806C203.859 409.806 200.957 412.045 196.351 415.137C187.991 420.75 174.019 429.146 161.633 431.902C161.633 431.902 160.355 429.345 158.406 425.492L154.053 416.869C151.433 411.655 148.522 405.871 146.038 400.911L143.146 395.108C142.611 394.038 142.13 393.068 141.722 392.225C134.469 377.527 126.354 342.9 150.182 340.597C152.218 340.385 154.268 340.343 156.311 340.47H156.411C156.973 340.515 157.517 340.57 158.052 340.642L158.505 340.706L159.303 340.851C159.621 340.905 159.938 340.978 160.21 341.05C160.482 341.123 160.7 341.168 160.935 341.241L161.271 341.322L161.96 341.549C162.179 341.615 162.394 341.694 162.604 341.785C162.824 341.85 163.039 341.932 163.247 342.029C163.498 342.125 163.743 342.234 163.982 342.356C164.201 342.448 164.416 342.55 164.626 342.664V342.664C164.91 342.797 165.182 342.942 165.442 343.099C165.677 343.226 165.904 343.362 166.122 343.498L166.684 343.87C167.345 344.309 167.98 344.784 168.588 345.294C168.851 345.511 169.105 345.72 169.35 345.955C170.175 346.704 170.959 347.497 171.698 348.331C171.943 348.612 172.197 348.902 172.441 349.238C172.686 349.573 172.822 349.7 173.013 349.936C173.321 350.317 173.629 350.716 173.919 351.133C174.128 351.396 174.327 351.677 174.527 351.958C174.835 352.384 175.143 352.865 175.434 353.282C175.724 353.699 175.914 353.98 176.15 354.361L176.893 355.539C177.147 355.938 177.392 356.346 177.646 356.772C178.226 357.724 178.797 358.731 179.378 359.774C179.559 360.118 179.759 360.472 179.949 360.825C180.139 361.179 180.466 361.787 180.729 362.285C180.992 362.784 181.236 363.192 181.481 363.718C181.726 364.244 182.052 364.815 182.343 365.386C182.941 366.565 183.539 367.753 184.156 368.949C190.993 382.614 197.974 397.393 201.465 404.873C203.006 407.956 203.859 409.806 203.859 409.806Z" fill="#FED81D"/>
<path d="M184.247 368.94C177.573 369.176 171.256 372.014 166.648 376.847C166.008 377.517 165.402 378.219 164.834 378.95C159.071 386.067 151.614 391.622 143.146 395.108C142.611 394.038 142.13 393.068 141.722 392.225C134.469 377.527 126.354 342.9 150.182 340.597C152.218 340.385 154.268 340.343 156.311 340.47H156.411C156.973 340.515 157.517 340.57 158.052 340.642L158.505 340.706L159.303 340.851C159.621 340.905 159.938 340.978 160.21 341.05C160.482 341.123 160.7 341.168 160.935 341.241L161.271 341.322L161.96 341.549C162.179 341.615 162.394 341.694 162.604 341.785C162.824 341.85 163.039 341.932 163.247 342.029C163.498 342.125 163.743 342.234 163.982 342.356C164.201 342.448 164.416 342.55 164.626 342.664V342.664C164.91 342.797 165.182 342.942 165.442 343.099C165.677 343.226 165.904 343.362 166.122 343.498L166.684 343.87C167.345 344.309 167.98 344.784 168.588 345.294C168.851 345.511 169.105 345.72 169.35 345.955C170.175 346.704 170.959 347.497 171.698 348.331C171.943 348.612 172.197 348.902 172.441 349.238C172.686 349.573 172.822 349.7 173.013 349.936C173.321 350.317 173.629 350.716 173.919 351.133C174.128 351.396 174.327 351.677 174.527 351.958C174.835 352.384 175.143 352.865 175.434 353.282C175.724 353.699 175.914 353.98 176.15 354.361L176.893 355.539C177.147 355.938 177.392 356.346 177.646 356.772C178.226 357.724 178.797 358.731 179.378 359.774C179.559 360.118 179.759 360.472 179.949 360.825C180.139 361.179 180.466 361.787 180.729 362.285C180.992 362.784 181.236 363.192 181.481 363.718C181.726 364.244 182.052 364.815 182.343 365.386C183.059 366.556 183.657 367.744 184.247 368.94Z" fill="#FFE05C"/>
<path d="M196.35 415.137C187.99 420.75 174.018 429.146 161.632 431.902C161.632 431.902 160.354 429.345 158.405 425.492L154.052 416.869C151.432 411.655 148.521 405.871 146.037 400.911L160.2 387.138C160.753 386.93 171.588 387.483 168.242 396.568C164.897 405.653 158.994 411.737 163.809 415.427C168.623 419.118 182.532 389.36 194.8 411.402C195.468 412.578 195.989 413.833 196.35 415.137V415.137Z" fill="#FCC71F"/>
<path d="M168.18 362.857C168.18 363.338 168.18 363.827 168.107 364.335C167.953 366.865 167.672 369.703 167.291 372.894C167.155 374.1 166.938 375.415 166.648 376.848C166.312 378.579 165.877 380.474 165.378 382.46C163.791 388.698 161.443 396.142 158.678 404.085C158.351 404.992 158.016 405.989 157.671 406.941C157.064 408.673 156.429 410.414 155.794 412.164C155.226 413.723 154.646 415.292 154.053 416.87C147.271 435.004 139.464 453.718 134.568 465.179C123.579 465.753 112.916 466.391 102.58 467.092C98.9529 467.328 95.3563 467.576 91.7899 467.836C86.7667 468.21 81.8403 468.591 77.0106 468.978C64.6612 469.985 52.9829 471.073 42.0752 472.233C44.0609 462.468 49.4376 436.6 55.7574 409.58C59.2391 394.71 63.011 379.486 66.6379 366.411C69.2038 357.208 71.7154 349.075 74.0094 342.837C76.4031 336.409 78.5429 332.029 80.3563 330.642C86.6489 325.836 92.071 324.295 98.8622 325.129C99.6057 325.229 100.358 325.347 101.138 325.492C101.918 325.637 102.707 325.818 103.523 326.018C103.822 326.081 104.121 326.163 104.429 326.244C104.738 326.326 105.073 326.426 105.4 326.516L106.424 326.807C108.038 327.29 109.752 327.855 111.565 328.502L112.689 328.901C113.596 329.227 114.503 329.572 115.482 329.944C117.296 330.624 119.218 331.385 121.267 332.192C126.39 334.232 133.136 336.971 147.434 339.981C148.386 340.171 149.302 340.38 150.155 340.579L150.916 340.752L151.651 340.933C152.013 341.015 152.385 341.114 152.73 341.205C153.074 341.296 153.428 341.386 153.763 341.477C154.443 341.658 155.096 341.84 155.722 342.039C156.728 342.357 157.671 342.683 158.551 343.037L159.376 343.381C159.902 343.626 160.4 343.871 160.863 344.125L161.479 344.469C162.434 345.028 163.316 345.701 164.109 346.473L164.263 346.627L164.481 346.863L164.771 347.189C165.057 347.529 165.327 347.883 165.578 348.25C165.714 348.459 165.841 348.658 165.968 348.885C166.094 349.112 166.167 349.229 166.258 349.42L166.385 349.674C167.121 351.252 167.61 352.934 167.835 354.661C167.835 354.887 167.899 355.114 167.935 355.359C167.971 355.604 167.935 355.658 167.989 355.821C168.044 355.984 168.044 356.338 168.062 356.601C168.08 356.864 168.107 357.181 168.116 357.508V357.898C168.116 358.215 168.116 358.541 168.116 358.877C168.261 360.101 168.243 361.425 168.18 362.857Z" fill="#FED81D"/>
<path d="M134.568 465.178C139.465 453.718 147.262 435.03 154.053 416.869C154.658 415.291 155.238 413.723 155.794 412.163C156.429 410.413 157.064 408.672 157.671 406.941C158.016 405.988 158.351 405.027 158.678 404.084C161.398 396.142 163.791 388.67 165.378 382.459" stroke="#F7AD2B" stroke-width="0.68003" stroke-linecap="round" stroke-linejoin="round"/>
<path d="M167.291 372.894C167.155 374.1 166.938 375.415 166.647 376.848C166.007 377.517 165.402 378.22 164.834 378.951C159.071 386.067 151.613 391.623 143.146 395.109C130.016 400.304 114.666 399.017 104.747 378.697C102.997 375.07 101.283 371.824 99.6237 368.841C90.7017 352.911 82.768 345.267 74.0273 342.855C76.421 336.427 78.5609 332.047 80.3743 330.66C86.6668 325.854 92.0889 324.313 98.8802 325.147C99.6236 325.247 100.376 325.365 101.156 325.51C101.936 325.655 102.725 325.836 103.541 326.036C103.84 326.099 104.139 326.181 104.447 326.262C104.756 326.344 105.091 326.444 105.418 326.534L106.442 326.825C108.056 327.308 109.77 327.873 111.583 328.52L112.707 328.919C113.614 329.246 114.521 329.59 115.5 329.962C116.253 330.252 117.041 330.542 117.839 330.869C118.374 331.068 118.9 331.277 119.453 331.503L121.267 332.22C126.39 334.26 133.136 336.998 147.434 340.008C148.386 340.199 149.302 340.407 150.154 340.607C166.928 344.415 170.22 348.604 167.291 372.894Z" fill="#FFE05C"/>
<path d="M156.338 340.47C153.428 349.447 146.156 358.74 135.049 357.054C122.926 355.24 115.455 342.719 115.509 329.961C117.322 330.641 119.245 331.403 121.294 332.21C126.417 334.25 133.163 336.988 147.461 339.999C148.413 340.189 149.329 340.398 150.182 340.597C152.227 340.384 154.286 340.342 156.338 340.47V340.47Z" fill="white"/>
<path d="M110.051 456.501C105.273 460.31 92.3067 465.569 77.0106 468.978C64.6612 469.984 52.9829 471.072 42.0752 472.233C44.0609 462.468 49.4376 436.599 55.7574 409.579C59.2391 394.709 63.011 379.486 66.6379 366.411C93.3313 370.165 100.449 398.427 88.3263 407.984C74.7257 418.737 73.2296 427.668 90.448 427.432C107.666 427.197 123.506 445.793 110.051 456.501Z" fill="#FCC71F"/>
<path d="M152.612 306.07C152.485 307.357 152.349 308.581 152.231 309.751C151.161 320.214 150.681 326.643 150.608 332.545C150.608 335.664 150.608 338.638 150.826 341.984C150.826 341.984 146.583 355.911 131.468 350.145C120.805 346.064 121.294 332.237 121.294 332.237C124.414 322.347 126.489 312.157 127.487 301.835C127.85 296.658 154.571 287.337 152.612 306.07Z" fill="#FEBD9D"/>
<path d="M152.231 309.751C151.161 320.215 150.681 326.643 150.608 332.546C141.94 335.175 132.909 325.047 137.914 313.931C141.541 306.052 148.033 307.611 152.231 309.751Z" fill="#F4A789"/>
<path d="M203.859 409.806C203.859 409.806 180.829 427.623 161.634 431.903C161.634 431.903 160.356 429.346 158.406 425.492C174.183 420.052 190.703 412.118 201.556 404.865C203.007 407.957 203.859 409.806 203.859 409.806Z" fill="white"/>
<path d="M158.531 319.969C153.454 326.579 144.432 325.037 130.369 310.766C125.047 305.325 118.908 296.558 119.072 289.621C119.235 282.685 127.631 268.078 143.553 276.465C149.7 279.711 154.098 285.967 156.89 292.786C157.946 295.393 158.786 298.083 159.402 300.828C161.261 309.143 160.889 316.895 158.531 319.969Z" fill="#FEBD9D"/>
<path d="M141.123 300.349C140.261 302.498 136.716 303.114 133.198 301.718C129.68 300.322 127.513 297.438 128.374 295.289C129.236 293.14 132.772 292.515 136.299 293.911C139.826 295.308 141.975 298.191 141.123 300.349Z" fill="#F4AF90"/>
<path d="M159.375 300.811C157.162 301.627 155.05 301.4 154.071 300.086C152.72 298.272 153.971 295.035 156.863 292.769C157.919 295.376 158.759 298.066 159.375 300.811Z" fill="#F4AF90"/>
<path d="M155.784 294.717C159.299 294.717 162.149 291.868 162.149 288.352C162.149 284.837 159.299 281.987 155.784 281.987C152.269 281.987 149.419 284.837 149.419 288.352C149.419 291.868 152.269 294.717 155.784 294.717Z" stroke="#683F1D" stroke-width="0.906706" stroke-miterlimit="10"/>
<path d="M141.604 291.744C141.602 292.006 141.678 292.263 141.822 292.482C141.967 292.701 142.173 292.872 142.414 292.973C142.656 293.075 142.923 293.102 143.18 293.052C143.437 293.002 143.674 292.877 143.86 292.692C144.046 292.508 144.173 292.272 144.225 292.015C144.277 291.758 144.251 291.491 144.151 291.249C144.051 291.006 143.882 290.799 143.664 290.653C143.446 290.507 143.19 290.429 142.927 290.429C142.578 290.429 142.242 290.567 141.994 290.814C141.746 291.06 141.606 291.394 141.604 291.744Z" fill="#683F1D"/>
<path d="M150.825 289.677C150.825 289.939 150.903 290.195 151.048 290.412C151.194 290.63 151.4 290.8 151.642 290.9C151.884 291 152.15 291.026 152.407 290.975C152.664 290.924 152.9 290.798 153.085 290.613C153.27 290.428 153.396 290.192 153.447 289.935C153.498 289.678 153.472 289.412 153.372 289.17C153.272 288.928 153.102 288.722 152.884 288.576C152.667 288.431 152.411 288.353 152.149 288.353C151.798 288.353 151.461 288.492 151.213 288.741C150.965 288.989 150.825 289.326 150.825 289.677Z" fill="#683F1D"/>
<path d="M131.693 309.824C128.447 311.692 123.405 311.692 121.664 306.523C119.924 301.355 124.883 298.762 127.694 299.27C131.158 299.904 133.08 304.982 131.693 309.824Z" fill="#FEBD9D"/>
<path d="M129.961 305.09C128.383 302.098 124.82 301.463 123.306 305.516" stroke="#EF8A66" stroke-width="0.68003" stroke-linecap="round" stroke-linejoin="round"/>
<path d="M129.082 303.857C125.229 302.125 124.458 308.699 128.901 307.04" stroke="#EF8A66" stroke-width="0.68003" stroke-linecap="round" stroke-linejoin="round"/>
<path d="M154.868 288.543C153.29 285.534 151.263 282.782 148.857 280.383C144.949 282.577 142.328 280.573 142.328 280.573C142.328 280.573 138.52 284.644 134.966 283.656C131.412 282.668 131.675 280.192 129.435 279.63C127.196 279.068 125.038 281.444 125.038 282.124C125.038 282.804 126.198 283.23 128.329 288.28C130.46 293.331 129.825 300.412 125.473 301.21C124.086 301.464 117.149 300.512 113.686 295.28C113.616 295.194 113.553 295.103 113.495 295.008C110.113 289.522 112.09 285.578 113.241 284.128C114.393 282.677 116.197 283.321 116.451 281.942C117.92 274.099 125.146 267.353 132.89 266.628C140.633 265.903 140.388 268.723 140.388 268.723C140.388 268.723 148.122 268.133 152.32 273.474C152.574 273.791 152.81 274.108 153.019 274.426C154.422 276.465 155.321 278.808 155.643 281.262C155.965 283.716 155.699 286.212 154.868 288.543V288.543Z" fill="#7F542D"/>
<path d="M154.868 288.543C153.29 285.534 151.263 282.782 148.857 280.383C144.949 282.577 142.328 280.573 142.328 280.573C142.328 280.573 138.52 284.645 134.966 283.656C131.412 282.668 131.675 280.193 129.435 279.631C127.195 279.068 125.038 281.444 125.038 282.124C125.038 282.804 126.198 283.23 128.329 288.28C130.46 293.331 129.825 300.412 125.473 301.21C124.085 301.464 117.149 300.512 113.686 295.28C122.753 293.594 123.052 288.77 121.111 281.009C119.842 275.895 129.272 271.107 134.54 274.363C137.822 276.403 146.835 275.759 153.018 274.426C154.422 276.465 155.321 278.808 155.643 281.262C155.964 283.716 155.699 286.212 154.868 288.543V288.543Z" fill="#704725"/>
<path d="M140.407 268.732C137.276 268.723 134.175 269.34 131.285 270.545" stroke="#A56F42" stroke-width="0.68003" stroke-linecap="round" stroke-linejoin="round"/>
<path d="M141.385 274.244C142.817 274.498 147.333 278.388 148.856 280.392C148.856 280.392 151.386 282.205 152.61 279.63" stroke="#A56F42" stroke-width="0.68003" stroke-linecap="round" stroke-linejoin="round"/>
<path d="M133.107 276.548C134.368 275.441 136.825 275.75 138.548 277.636C139.649 278.791 140.91 279.784 142.292 280.582" stroke="#A56F42" stroke-width="0.68003" stroke-linecap="round" stroke-linejoin="round"/>
<path d="M145.601 285.397C145.193 289.931 146.617 292.062 148.566 292.18C150.516 292.298 153.1 292.95 152.61 296.006" stroke="#EF8A66" stroke-width="0.68003" stroke-linecap="round" stroke-linejoin="round"/>
<path d="M143.354 301.808C146.048 302.274 148.78 302.483 151.514 302.434C151.514 302.434 150.607 305.915 147.243 305.517C146.284 305.394 145.389 304.968 144.69 304.301C143.99 303.634 143.522 302.76 143.354 301.808V301.808Z" fill="white" stroke="#EF8A66" stroke-width="0.68003" stroke-linecap="round" stroke-linejoin="round"/>
<path d="M134.422 293.104C134.422 294.359 134.794 295.586 135.492 296.63C136.189 297.674 137.18 298.487 138.34 298.968C139.5 299.448 140.776 299.574 142.007 299.329C143.238 299.084 144.369 298.479 145.257 297.592C146.144 296.704 146.749 295.573 146.994 294.342C147.239 293.111 147.113 291.835 146.633 290.675C146.152 289.515 145.339 288.524 144.295 287.826C143.251 287.129 142.024 286.757 140.769 286.757C139.086 286.757 137.471 287.426 136.281 288.616C135.091 289.806 134.422 291.42 134.422 293.104V293.104Z" stroke="#683F1D" stroke-width="0.906706" stroke-miterlimit="10"/>
<path d="M146.581 282.75C146.463 285.016 152.819 284.563 152.873 283.584C152.928 282.605 146.699 280.592 146.581 282.75Z" fill="#7F542D"/>
<path d="M135.954 288.062C136.607 289.368 142.845 285.995 141.394 283.638C139.943 281.28 135.056 286.303 135.954 288.062Z" fill="#7F542D"/>
<path d="M131.694 309.824C130.079 310.774 128.186 311.136 126.335 310.848" stroke="#EF8A66" stroke-width="0.68003" stroke-linecap="round" stroke-linejoin="round"/>
<path d="M93.1582 380.502C85.152 392.135 78.5965 403.877 72.6938 414.685C58.1231 441.351 49.7904 460.755 31.8286 460.519C15.4444 460.292 13.6945 436.219 32.7988 397.049L27.9751 392.561C27.9751 392.561 42.02 372.088 55.5299 351.524C67.7342 332.963 78.4152 319.508 98.8886 325.13C110.975 328.475 107.375 359.748 93.1582 380.502Z" fill="#FEBD9D"/>
<path d="M99.6245 368.814C97.8192 372.885 95.6558 376.787 93.1597 380.474C86.8127 389.668 81.4178 398.926 76.5125 407.739C75.1978 410.078 73.9284 412.39 72.6953 414.657C66.9636 413.28 61.3098 411.597 55.758 409.616C47.2441 406.452 38.6938 402.362 32.7368 397.058L27.9131 392.57C27.9131 392.57 29.4545 390.33 31.9933 386.604C37.1343 379.033 46.419 365.305 55.4679 351.532C57.5533 348.35 59.6025 345.321 61.6607 342.511C71.6345 328.91 81.8621 320.478 98.8356 325.138C108.9 327.949 108.148 349.692 99.6245 368.814Z" fill="#FED81D"/>
<path d="M76.5116 407.803C75.1968 410.142 73.9274 412.454 72.6943 414.721C60.1455 411.62 42.773 406.016 32.7993 397.094L27.9756 392.606C27.9756 392.606 29.517 390.367 32.0558 386.64C39.4998 394.719 49.4736 399.86 76.5116 407.803Z" fill="white"/>
<path d="M99.6238 368.815C90.7018 352.884 82.7681 345.24 74.0275 342.828C69.9946 341.792 65.7807 341.675 61.6963 342.484C71.6701 328.883 81.8977 320.451 98.8712 325.111C108.899 327.949 108.147 349.692 99.6238 368.815Z" fill="#FFE05C"/>
<path d="M99.6779 368.706C97.8668 372.824 95.6847 376.77 93.1587 380.493C85.1525 392.126 78.597 403.868 72.6943 414.676" stroke="#F7AD2B" stroke-width="0.68003" stroke-linecap="round" stroke-linejoin="round"/>
<path d="M98.5717 352.711C100.385 359.194 103.259 362.205 97.3477 373.566" stroke="#F7AD2B" stroke-width="0.68003" stroke-linecap="round" stroke-linejoin="round"/>
<path d="M20.9939 442.782C27.9484 426.017 53.4177 425.464 84.1732 436.68C114.929 447.896 148.74 459.13 153.863 460.517C158.986 461.905 158.024 479.359 145.131 478.388C132.238 477.418 83.4751 481.644 54.941 476.339C26.407 471.035 16.4151 453.744 20.9939 442.782Z" fill="#FEBD9D"/>
<path d="M35.3369 430.697C43.4973 428.285 54.2145 428.638 66.4641 431.404" stroke="#EF8A66" stroke-width="0.68003" stroke-linecap="round" stroke-linejoin="round"/>
<path d="M227.251 461.035C240.852 441.486 247.87 364.308 247.87 364.308C247.87 364.308 261.516 357.961 263.783 356.428C266.049 354.896 270.456 347.225 271.217 344.931C271.217 344.931 275.044 342.592 274.926 341.305C274.808 340.017 273.403 340.017 273.403 340.017C273.403 340.017 274.309 337.088 269.368 337.913C269.134 337.607 268.819 337.372 268.458 337.238C268.097 337.103 267.705 337.073 267.328 337.152C265.859 337.324 248.378 342.529 248.378 342.529C248.378 342.529 255.513 337.56 255.631 335.574C255.749 333.588 253.337 334.359 251.696 335.347C248.372 337.306 244.797 338.803 241.07 339.799C239.32 340.307 233.816 344.714 228.847 354.243C223.878 363.773 194.719 426.517 191.536 435.004C181.127 462.912 204.611 493.468 227.251 461.035Z" fill="#FEBD9D"/>
<path d="M202 411.366C196.849 422.754 192.633 432.111 191.536 435.004" stroke="#EF8A66" stroke-width="0.68003" stroke-linecap="round" stroke-linejoin="round"/>
<path d="M263.782 356.428C266.058 354.905 270.456 347.225 271.217 344.931C271.217 344.931 275.044 342.592 274.926 341.305C274.808 340.017 273.402 340.017 273.402 340.017C273.402 340.017 274.309 337.088 269.368 337.913C269.134 337.607 268.819 337.372 268.458 337.238C268.097 337.103 267.705 337.073 267.328 337.152C265.859 337.324 248.377 342.529 248.377 342.529C248.377 342.529 255.513 337.56 255.631 335.574C255.749 333.588 253.337 334.359 251.696 335.347C248.372 337.306 244.797 338.803 241.069 339.799" stroke="#EF8A66" stroke-width="0.68003" stroke-linecap="round" stroke-linejoin="round"/>
<path d="M248.378 342.52L245.657 344.387C245.657 344.387 247.888 349.347 242.402 353.454" stroke="#EF8A66" stroke-width="0.68003" stroke-linecap="round" stroke-linejoin="round"/>
<path d="M253.128 345.393L269.367 337.913" stroke="#EF8A66" stroke-width="0.68003" stroke-linecap="round" stroke-linejoin="round"/>
<path d="M259.321 350.879C259.457 350.788 264.245 348.531 264.245 348.531C264.245 348.531 269.168 340.86 270.474 340.47C271.779 340.08 273.275 340.715 271.217 344.931" stroke="#EF8A66" stroke-width="0.68003" stroke-linecap="round" stroke-linejoin="round"/>
<path d="M255.785 347.996L269.903 340.86" stroke="#EF8A66" stroke-width="0.68003" stroke-linecap="round" stroke-linejoin="round"/>
<path d="M273.404 340.017L271.581 340.461" stroke="#EF8A66" stroke-width="0.68003" stroke-linecap="round" stroke-linejoin="round"/>
<path d="M218.085 436.508C210.069 460.591 196.079 495.036 196.079 495.036L102.607 516.244L37.8496 500.903V496.179L111.882 480.565C117.214 467.055 124.014 441.332 127.378 440.67C132.881 439.582 209.843 427.595 215.655 427.441C221.149 427.287 219.826 431.277 218.085 436.508Z" fill="#F9F9F9" stroke="#DDDDDD" stroke-width="0.906706" stroke-linecap="round" stroke-linejoin="round"/>
<path d="M111.882 480.564L101.763 507.276" stroke="#DDDDDD" stroke-width="0.906706" stroke-linecap="round" stroke-linejoin="round"/>
<path d="M102.752 511.048L102.607 516.243L37.8496 500.902V496.178L102.752 511.048Z" fill="#EDEDED" stroke="#DDDDDD" stroke-width="0.906706" stroke-linecap="round" stroke-linejoin="round"/>
</g>
<g filter="url(#filter2_d_618_92)">
<path d="M454.062 419.653C453.989 420.478 453.926 421.294 453.863 422.092C451.523 448.386 448.939 461.887 447.434 468.089L444.424 467.853C440.12 467.515 435.786 467.197 431.422 466.901C406.297 465.151 380.483 463.891 354.497 463.048C347.056 462.806 339.596 462.597 332.119 462.422C337.559 451.106 344.342 430.252 349.945 411.646C350.698 409.09 351.45 406.587 352.157 404.148C352.762 402.117 353.336 400.146 353.88 398.236C353.953 397.964 354.034 397.692 354.116 397.42C354.197 397.148 354.306 396.731 354.415 396.387C354.66 395.534 354.896 394.673 355.14 393.812C355.267 393.413 355.376 393.014 355.485 392.615C355.666 391.989 355.839 391.363 356.011 390.747C356.183 390.13 356.319 389.677 356.464 389.16C356.691 388.353 356.908 387.555 357.126 386.794C357.253 386.304 357.398 385.824 357.516 385.361L358.423 382.215C358.531 381.852 358.613 381.517 358.695 381.208C358.876 380.583 359.012 380.066 359.13 379.685C359.13 379.594 359.175 379.504 359.193 379.431C359.212 379.359 359.239 379.268 359.257 379.196C359.259 379.156 359.259 379.117 359.257 379.078V378.96C359.338 378.642 359.42 378.352 359.493 378.053L359.819 376.847C360.309 375.034 360.572 374.064 360.572 374.064C358.967 374.704 357.227 374.929 355.512 374.716C347.66 374.127 336.136 368.134 334.758 360.209C334.728 360.053 334.706 359.896 334.694 359.738C334.651 359.437 334.627 359.134 334.622 358.831C334.623 356.347 335.485 353.941 337.061 352.022C346.4 339.609 352.529 335.238 358.649 333.08C359.384 332.836 360.1 332.609 360.835 332.4C367.735 330.505 388.888 329.046 388.888 329.046C391.436 325.419 396.432 313.287 398.98 301.346C401.908 287.591 412.87 285.506 418.691 293.185C420.877 296.06 422.318 300.294 422.4 305.789C422.463 312.625 422.572 320.958 422.636 325.954C422.681 328.674 422.708 330.369 422.708 330.369C422.708 330.369 432.999 326.498 449.474 326.262C452.965 326.217 456.383 327.042 458.913 329.363C462.649 332.79 466.167 339.672 469.34 348.014C476.902 367.907 482.46 396.069 484.273 406.261C486.676 420.342 454.062 419.653 454.062 419.653Z" fill="#2F720F"/>
<path d="M460.879 400.983C452.775 402.822 444.328 402.481 436.398 399.995C427.93 403.794 396.812 409.642 375.985 407.647C355.158 405.653 354.269 398.327 354.269 398.327L353.843 398.227C356.336 389.568 359.283 378.95 359.283 378.95C359.283 378.95 360.571 379.213 362.91 379.585C383.035 382.506 403.52 381.8 423.396 377.5C423.396 377.5 439.717 382.106 455.983 378.696L460.879 400.983Z" fill="#537E3E"/>
<path d="M462.64 409.007C462.64 409.007 434.451 412.997 410.051 416.86C385.652 420.722 360.182 418.673 349.964 411.637L352.185 404.129C361.325 412.063 374.245 414.04 397.729 413.042C421.213 412.045 436.065 405 436.065 405C448.233 408.237 457.399 406.813 461.924 405.58L462.64 409.007Z" fill="#537E3E"/>
<path d="M469.385 348.041C456.628 347.071 441.214 353.155 428.393 364.588C417.295 374.471 395.87 387.002 379.712 370.935C376.439 367.722 372.623 365.113 368.442 363.228C358.785 358.84 346.908 357.534 334.667 358.84C334.668 356.356 335.53 353.95 337.106 352.03C346.445 339.617 352.574 335.247 358.695 333.089C359.429 332.844 360.145 332.618 360.88 332.409C367.78 330.514 388.933 329.054 388.933 329.054C391.481 325.428 396.477 313.296 399.025 301.354C401.954 287.6 412.916 285.514 418.737 293.194C420.922 296.068 422.364 300.303 422.445 305.797C422.509 312.634 422.617 320.967 422.681 325.962C422.726 328.683 422.753 330.378 422.753 330.378C422.753 330.378 433.045 326.507 449.519 326.271C453.01 326.225 456.429 327.051 458.958 329.372C462.694 332.817 466.212 339.699 469.385 348.041Z" fill="#2F720F"/>
<path d="M453.862 422.092C451.523 448.386 448.939 461.887 447.433 468.089L444.423 467.853C440.119 467.514 435.785 467.197 431.421 466.901C406.296 465.151 380.482 463.891 354.496 463.047C363.899 453.164 381.017 449.202 392.061 454.787C404.456 461.053 424.702 455.168 419.371 440.135C416.207 431.222 418.192 420.577 436.027 413.088L453.862 422.092Z" fill="#537E3E"/>
<path d="M458.957 329.39C453.653 330.233 446.626 333.153 438.021 336.371C434.993 337.505 431.783 338.674 428.392 339.799C417.408 343.592 405.961 345.879 394.363 346.599C390.014 346.857 385.652 346.824 381.307 346.499C377.975 346.276 374.679 345.667 371.487 344.686C364.66 342.473 360.852 338.566 358.685 333.125C359.419 332.881 360.144 332.654 360.879 332.445C363.989 331.593 370.018 330.831 375.676 330.242C379.258 329.861 382.712 329.571 385.188 329.381C387.472 329.19 388.932 329.09 388.932 329.09C391.48 325.464 396.476 313.332 399.024 301.391C401.953 287.636 412.915 285.55 418.736 293.23C420.921 296.105 422.363 300.339 422.444 305.833C422.508 312.67 422.616 321.003 422.68 325.999C422.725 328.719 422.752 330.414 422.752 330.414C425.209 329.569 427.721 328.89 430.269 328.383C432.735 327.857 435.764 327.341 439.273 326.942C442.675 326.559 446.095 326.347 449.518 326.307C452.916 326.284 456.228 327.366 458.957 329.39V329.39Z" fill="#B25E47"/>
<path d="M422.681 325.981C413.968 325.464 406.542 318.401 408.382 309.406C410.44 299.351 414.357 294.572 418.737 293.212C420.922 296.087 422.364 300.321 422.445 305.816C422.509 312.652 422.617 320.985 422.681 325.981Z" fill="#914839"/>
<path d="M439.273 326.923C438.578 330.029 438.162 333.191 438.031 336.371C435.002 337.505 431.792 338.674 428.401 339.799C428.549 335.924 429.179 332.083 430.278 328.365C432.735 327.839 435.764 327.322 439.273 326.923Z" fill="#FED81D"/>
<path d="M385.189 329.372C383.309 334.933 382.009 340.672 381.308 346.5C377.976 346.276 374.68 345.668 371.488 344.686C372.426 339.75 373.828 334.914 375.677 330.243C379.259 329.825 382.722 329.562 385.189 329.372Z" fill="#FED81D"/>
<path d="M467.137 438.693C466.175 447.996 464.416 457.244 461.361 463.709C459.475 467.69 457.09 470.6 454.062 471.815C447.978 474.272 442.746 473.629 438.575 471.317C431.104 467.191 427.06 457.807 427.695 451.723C427.695 451.433 427.749 451.106 427.786 450.816C427.858 449.909 427.922 448.939 427.985 447.851C427.985 447.497 427.985 447.126 428.058 446.745C428.058 446.672 428.058 446.6 428.058 446.518C428.058 446.246 428.058 445.965 428.058 445.684C428.058 445.185 428.112 444.659 428.13 444.143C428.148 443.626 428.13 443.327 428.185 442.9C428.185 442.755 428.185 442.61 428.185 442.465C428.185 442.042 428.203 441.607 428.239 441.16C428.239 440.706 428.239 440.253 428.302 439.772C428.302 438.739 428.375 437.696 428.411 436.608C428.447 435.52 428.475 434.677 428.511 433.688C428.511 433.262 428.511 432.836 428.511 432.419C428.593 430.125 428.656 427.74 428.729 425.319C428.774 423.796 428.819 422.255 428.874 420.704L428.928 418.791L429.01 416.171L429.064 414.357C429.064 413.306 429.146 412.272 429.173 411.238C429.227 409.742 429.282 408.255 429.336 406.795C429.336 405.834 429.418 404.882 429.454 403.939C429.526 402.171 429.608 400.476 429.69 398.834L468.043 404.175C468.509 415.688 468.207 427.22 467.137 438.693V438.693Z" fill="#2F720F"/>
<path d="M429.753 398.734C428.847 416.161 428.565 442.256 427.641 451.704" stroke="#2F720F" stroke-width="0.68003" stroke-linecap="round" stroke-linejoin="round"/>
<path d="M467.135 438.693C466.174 447.996 464.415 457.244 461.36 463.709C459.474 467.689 457.089 470.6 454.061 471.815C447.977 474.272 442.745 473.628 438.574 471.316C440.728 470.355 442.999 469.681 445.329 469.312C455.511 467.581 452.302 455.059 456.726 446.364C458.513 442.891 461.532 440.017 467.135 438.693Z" fill="#A7CAF0"/>
<path d="M372.845 490.448C370.251 492.715 368.538 502.235 374.785 509.833C381.032 517.432 387.143 512.553 387.143 512.553C387.143 512.553 396.102 504.837 389.863 493.358C383.625 481.88 372.845 490.448 372.845 490.448Z" fill="#83ADDF"/>
<path d="M386.425 488.616C379.86 491.781 375.191 493.911 374.012 493.83C372.833 493.748 361.835 495.099 358.671 496.051C355.506 497.003 348.316 504.583 349.023 505.689C349.73 506.796 352.505 506.596 352.505 506.596C352.505 506.596 341.624 514.584 340.564 517.477C339.503 520.369 342.785 519.689 342.785 519.689C341.09 520.596 338.759 525.437 344.68 523.642C343.257 524.549 342.395 527.224 346.421 526.254C352.269 524.83 361.835 520.877 361.835 520.877C361.835 520.877 355.189 525.855 352.505 527.124C349.821 528.393 349.658 531.313 355.434 529.654C361.209 527.994 372.425 520.17 376.288 517.395C380.15 514.62 383.877 512.263 384.747 511.71C385.618 511.157 393.923 507.358 393.923 507.358C393.923 507.358 401.993 487.038 386.425 488.616Z" fill="#B25E47"/>
<path d="M352.504 506.633C356.539 503.786 362.151 499.634 363.339 499.498" stroke="#934735" stroke-width="0.68003" stroke-linecap="round" stroke-linejoin="round"/>
<path d="M342.831 519.761C342.994 519.317 359.097 508.98 359.097 508.98" stroke="#934735" stroke-width="0.68003" stroke-linecap="round" stroke-linejoin="round"/>
<path d="M344.644 523.715C344.725 523.207 361.146 514.938 361.146 514.938" stroke="#934735" stroke-width="0.68003" stroke-linecap="round" stroke-linejoin="round"/>
<path d="M358.671 496.052C355.506 496.958 348.316 504.584 349.023 505.69C349.73 506.796 352.505 506.597 352.505 506.597C352.505 506.597 341.624 514.585 340.564 517.477C339.503 520.37 342.785 519.69 342.785 519.69C341.09 520.596 338.759 525.438 344.68 523.643C343.257 524.55 342.395 527.224 346.421 526.254C352.269 524.831 361.835 520.877 361.835 520.877C361.835 520.877 355.189 525.855 352.505 527.125C349.821 528.394 349.658 531.314 355.434 529.654C356.84 529.211 358.205 528.647 359.514 527.968" stroke="#934735" stroke-width="0.68003" stroke-linecap="round" stroke-linejoin="round"/>
<path d="M461.364 463.709C459.868 470.582 443.003 481.97 425.731 492.026C406.962 502.906 387.712 512.291 387.141 512.563C391.24 506.025 390.378 488.344 372.852 490.421C372.852 490.421 418.921 457.779 427.58 450.707C427.634 450.66 427.692 450.617 427.753 450.58C437.618 442.637 449.885 441.187 456.767 446.364C460.983 449.592 463.15 455.359 461.364 463.709Z" fill="#2F720F"/>
<path d="M461.364 463.709C459.868 470.582 443.003 481.97 425.73 492.025C427.879 482.052 430.717 474.907 438.56 471.316C440.714 470.355 442.985 469.681 445.315 469.312C455.498 467.581 452.288 455.059 456.713 446.364C460.983 449.592 463.15 455.358 461.364 463.709Z" fill="#537E3E"/>
<path d="M412.393 462.086C419.274 457.072 425.041 452.793 427.589 450.725C431.248 447.708 435.502 445.496 440.074 444.233" stroke="#83ADDF" stroke-width="0.68003" stroke-linecap="round" stroke-linejoin="round"/>
<path d="M368.443 363.22C366.92 368.776 365.079 374.24 362.93 379.586C360.377 385.974 357.503 392.23 354.317 398.327C353.561 399.796 352.778 401.262 351.968 402.725C351.85 402.952 351.723 403.187 351.587 403.414C350.563 405.282 349.484 407.15 348.387 408.999C345.413 414.004 342.563 418.607 339.837 422.808C335.705 429.324 331.121 435.541 326.118 441.414C316.924 451.941 308.891 456.502 301.03 455.015C299.518 454.723 298.05 454.242 296.659 453.582C295.137 452.881 293.774 451.876 292.654 450.628C291.534 449.381 290.682 447.918 290.149 446.328C289.634 444.864 289.305 443.341 289.17 441.795C288.58 435.675 290.249 427.786 293.848 418.765C295.903 413.714 298.259 408.79 300.903 404.021C301.664 402.643 302.453 401.301 303.26 399.869C305.871 395.408 308.818 390.802 312.055 386.123C312.391 385.652 312.708 385.216 313.025 384.718C314.095 383.176 315.135 381.665 316.144 380.184L319.236 375.651C319.472 375.306 319.699 374.962 319.934 374.626C323.634 369.186 326.989 364.172 330.126 359.675L330.271 359.457L332.084 356.909C342.539 342.22 350.654 333.534 360.899 332.428C372.016 331.267 373.421 344.65 368.443 363.22Z" fill="#2F720F"/>
<path d="M368.443 363.22C357.635 358.269 344.044 357.281 330.253 359.457L332.066 356.909C342.521 342.22 350.636 333.534 360.881 332.428C372.016 331.267 373.421 344.65 368.443 363.22Z" fill="#2F720F"/>
<path d="M360.609 374.082C363.511 362.685 364.037 358.405 364.037 358.405" stroke="#83ADDF" stroke-width="0.68003" stroke-linecap="round" stroke-linejoin="round"/>
<path d="M362.93 379.585C360.377 385.974 357.502 392.229 354.316 398.327V398.327C354.316 398.327 331.948 395.525 319.925 374.625C323.624 369.185 326.979 364.171 330.116 359.674C333.67 365.377 342.611 375.387 362.93 379.585Z" fill="#537E3E"/>
<path d="M353.882 398.228C356.375 389.569 358.415 382.297 359.531 378.072L359.857 376.866C360.347 375.052 360.61 374.082 360.61 374.082" stroke="#83ADDF" stroke-width="0.68003" stroke-linecap="round" stroke-linejoin="round"/>
<path d="M351.96 402.725L351.579 403.396L348.378 408.981C348.378 408.981 321.485 403.668 313.017 384.718C314.087 383.176 315.126 381.665 316.136 380.184C328.367 399.579 351.96 402.725 351.96 402.725Z" fill="#537E3E"/>
<path d="M334.251 409.75C334.251 409.75 332.863 420.984 327.178 438.457C326.852 439.472 326.498 440.451 326.108 441.421C321.575 452.928 313.487 461.505 305.49 464.434C302.693 465.544 299.631 465.805 296.686 465.186C285.878 462.702 281.027 453.834 283.946 438.457C285.252 431.566 288.843 424.928 293.83 418.79C296.678 415.322 299.801 412.09 303.169 409.125C307.446 405.349 311.992 401.888 316.769 398.77L334.251 409.75Z" fill="#2F720F"/>
<path d="M305.49 464.435C302.693 465.544 299.631 465.806 296.686 465.187C285.878 462.703 281.027 453.835 283.946 438.457C285.252 431.566 288.843 424.929 293.83 418.791C296.678 415.323 299.801 412.091 303.169 409.125C304.057 411.886 304.198 414.833 303.579 417.666C302.959 420.499 301.601 423.118 299.642 425.256C294.791 430.696 289.758 436.78 289.151 441.821C288.908 443.402 289.257 445.016 290.13 446.355V446.355C291.001 447.595 292.179 448.589 293.549 449.238C296.371 450.702 298.9 452.672 301.011 455.05C303.586 457.97 305.245 461.297 305.49 464.435Z" fill="#537E3E"/>
<path d="M327.18 438.466C328.522 434.332 329.628 430.56 330.525 427.187" stroke="#2F720F" stroke-width="0.68003" stroke-linecap="round" stroke-linejoin="round"/>
<path d="M307.539 405.453C295.815 414.792 286.259 426.208 283.965 438.466" stroke="#2F720F" stroke-width="0.68003" stroke-linecap="round" stroke-linejoin="round"/>
<path d="M313.243 407.983C310.523 412.707 306.651 420.677 309.915 425.854C313.18 431.031 320.27 432.201 325.683 427.196C331.096 422.191 333.843 417.222 334.251 411.855L313.243 407.983Z" fill="#2F720F"/>
<path d="M321.457 397.528C320.288 396.104 323.271 394.191 325.438 395.533C327.612 396.933 329.971 398.023 332.447 398.77C334.26 399.169 335.403 403.811 334.568 404.664C334.568 404.664 322.881 399.214 321.457 397.528Z" fill="#B25E47"/>
<path d="M332.447 398.735C334.261 399.134 335.403 403.776 334.569 404.628" stroke="#934735" stroke-width="0.68003" stroke-linecap="round" stroke-linejoin="round"/>
<path d="M296.777 386.947C294.329 385.414 296.876 380.971 299.334 381.996C301.791 383.021 338.458 406.894 338.458 406.894L341.178 411.428L335.738 410.702C335.738 410.702 298.817 388.261 296.777 386.947Z" fill="#683F1D"/>
<path d="M313.125 401.264C312.545 397.782 317.115 396.857 319.372 398.48C321.63 400.103 329.6 403.803 332.202 404.664C334.804 405.525 336.436 408.771 334.813 409.905C334.813 409.905 336.436 412.217 334.532 413.278C333.691 413.81 332.774 414.214 331.812 414.474C331.812 414.474 332.592 416.968 326.671 419.57C326.671 419.57 325.765 423.197 322.582 424.104C319.399 425.01 313.515 424.312 312.146 423.197C310.777 422.082 310.097 418.663 311.439 417.412C311.439 417.412 308.038 415.816 308.646 413.314C309.462 409.941 311.783 410.92 311.085 409.587C310.387 408.254 309.272 405.743 311.012 404.7C312.753 403.657 313.442 403.132 313.125 401.264Z" fill="#B25E47"/>
<path d="M332.201 404.665C334.813 405.526 336.436 408.772 334.813 409.905C334.813 409.905 336.436 412.217 334.531 413.278C333.69 413.811 332.773 414.214 331.811 414.475C331.811 414.475 332.591 416.969 326.67 419.571C326.67 419.571 325.764 423.198 322.581 424.104" stroke="#934735" stroke-width="0.68003" stroke-linecap="round" stroke-linejoin="round"/>
<path d="M314.132 411.364C318.632 413.046 323.311 414.203 328.077 414.81C329.342 414.805 330.603 414.693 331.849 414.474" stroke="#934735" stroke-width="0.68003" stroke-linecap="round" stroke-linejoin="round"/>
<path d="M334.811 409.905C334.811 409.905 328.192 410.095 326.787 409.905C325.544 409.732 316.069 405.988 316.069 405.988" stroke="#934735" stroke-width="0.68003" stroke-linecap="round" stroke-linejoin="round"/>
<path d="M315.889 418.791C315.889 418.791 322.879 420.196 326.706 419.571" stroke="#934735" stroke-width="0.68003" stroke-linecap="round" stroke-linejoin="round"/>
<path d="M400.576 274.87C398.45 278.67 395.384 281.86 391.672 284.136C385.371 288.071 380.048 285.115 377.782 282.105C376.947 280.981 376.965 277.925 377.609 274.48C378.706 268.65 381.59 261.668 385.135 260.879C387.189 260.389 389.326 260.364 391.391 260.807C393.455 261.249 395.395 262.147 397.067 263.436C397.642 263.879 398.157 264.394 398.6 264.968C400.984 268.015 401.057 268.169 400.576 274.87Z" fill="#FFEACC"/>
<path d="M400.576 274.87C398.45 278.67 395.384 281.86 391.672 284.136C385.371 288.071 380.048 285.116 377.782 282.105C376.947 280.981 376.965 277.925 377.609 274.48C380.683 279.92 386.096 282.087 388.227 280.346C391.255 277.853 386.649 265.712 397.067 263.4C397.642 263.843 398.157 264.358 398.6 264.932C400.984 268.015 401.057 268.169 400.576 274.87Z" fill="#EDD6B7"/>
<path d="M392.697 276.33C394.438 275.876 394.828 271.941 393.15 271.687C391.473 271.433 390.167 274.199 390.575 276.33C390.829 277.681 391.854 278.614 395.018 277.853" stroke="#C6AB8B" stroke-width="0.68003" stroke-linecap="round" stroke-linejoin="round"/>
<path d="M390.884 280.582C383.785 280.418 381.146 279.076 380.611 275.903C380.076 272.729 379.759 267.38 379.759 267.38" stroke="#C6AB8B" stroke-width="0.68003" stroke-linecap="round" stroke-linejoin="round"/>
<path d="M387.156 280.337C385.303 278.77 384.026 276.629 383.53 274.253C382.949 270.626 385.842 265.784 387.8 265.558C391.182 265.177 398.681 268.078 398.082 273.945" stroke="#C6AB8B" stroke-width="0.68003" stroke-linecap="round" stroke-linejoin="round"/>
<path d="M427.514 314.093C420.732 317.285 408.4 314.093 401.355 306.441C392.542 296.857 400.104 275.613 410.169 272.602C420.233 269.592 425.447 280.246 428.393 288.796L428.448 288.977C429.211 291.225 429.847 293.513 430.352 295.832C431.939 303.068 432.465 311.763 427.514 314.093Z" fill="#B25E47"/>
<path d="M401.063 292.197C400.528 294.064 403.24 296.485 407.129 297.637C411.019 298.788 414.591 298.126 415.126 296.25C415.661 294.373 412.95 291.952 409.07 290.809C405.189 289.667 401.598 290.32 401.063 292.197Z" fill="#A0503D"/>
<path d="M430.352 295.833C428.402 296.658 426.67 296.685 425.863 295.733C424.712 294.355 425.863 291.462 428.448 288.978C429.211 291.225 429.847 293.514 430.352 295.833V295.833Z" fill="#A0503D"/>
<path d="M421.838 286.937C421.836 287.2 421.912 287.457 422.057 287.676C422.202 287.895 422.409 288.066 422.651 288.168C422.893 288.269 423.16 288.296 423.418 288.245C423.675 288.194 423.912 288.068 424.098 287.882C424.283 287.697 424.41 287.46 424.46 287.202C424.511 286.945 424.484 286.678 424.383 286.436C424.282 286.193 424.111 285.987 423.891 285.842C423.672 285.697 423.415 285.621 423.153 285.623C422.805 285.625 422.472 285.764 422.226 286.01C421.98 286.256 421.84 286.589 421.838 286.937V286.937Z" fill="#683F1D"/>
<path d="M414.457 288.805C414.457 289.067 414.535 289.324 414.681 289.542C414.827 289.76 415.034 289.929 415.276 290.029C415.519 290.129 415.785 290.155 416.042 290.103C416.3 290.051 416.535 289.924 416.72 289.738C416.905 289.552 417.03 289.315 417.08 289.058C417.13 288.801 417.103 288.534 417.001 288.292C416.9 288.051 416.729 287.845 416.51 287.7C416.291 287.556 416.034 287.48 415.772 287.481C415.598 287.481 415.427 287.516 415.267 287.582C415.106 287.649 414.961 287.747 414.839 287.87C414.717 287.993 414.62 288.139 414.555 288.299C414.489 288.46 414.456 288.632 414.457 288.805V288.805Z" fill="#683F1D"/>
<path d="M411.139 294.464C411.139 294.587 411.175 294.708 411.244 294.811C411.313 294.914 411.411 294.994 411.525 295.042C411.639 295.089 411.765 295.101 411.886 295.077C412.008 295.053 412.119 294.993 412.207 294.906C412.294 294.818 412.354 294.707 412.378 294.586C412.402 294.464 412.39 294.338 412.342 294.224C412.295 294.11 412.215 294.012 412.112 293.943C412.009 293.875 411.888 293.838 411.764 293.838C411.598 293.838 411.439 293.904 411.322 294.021C411.205 294.138 411.139 294.298 411.139 294.464V294.464Z" fill="#914839"/>
<path d="M413.84 292.56C414.186 292.56 414.466 292.28 414.466 291.934C414.466 291.589 414.186 291.309 413.84 291.309C413.495 291.309 413.215 291.589 413.215 291.934C413.215 292.28 413.495 292.56 413.84 292.56Z" fill="#914839"/>
<path d="M414.466 294.825C414.812 294.825 415.092 294.545 415.092 294.2C415.092 293.854 414.812 293.574 414.466 293.574C414.121 293.574 413.841 293.854 413.841 294.2C413.841 294.545 414.121 294.825 414.466 294.825Z" fill="#914839"/>
<path d="M416.144 292.559C416.144 292.682 416.18 292.803 416.249 292.906C416.318 293.009 416.415 293.089 416.53 293.137C416.644 293.184 416.77 293.196 416.891 293.172C417.013 293.148 417.124 293.089 417.212 293.001C417.299 292.914 417.359 292.802 417.383 292.681C417.407 292.559 417.395 292.434 417.347 292.319C417.3 292.205 417.22 292.107 417.117 292.039C417.014 291.97 416.893 291.933 416.769 291.933C416.603 291.933 416.444 291.999 416.327 292.116C416.209 292.234 416.144 292.393 416.144 292.559V292.559Z" fill="#914839"/>
<path d="M426.389 290.22C426.389 290.344 426.425 290.465 426.494 290.568C426.563 290.671 426.661 290.751 426.775 290.798C426.889 290.846 427.015 290.858 427.136 290.834C427.258 290.81 427.369 290.75 427.457 290.663C427.544 290.575 427.604 290.464 427.628 290.342C427.652 290.221 427.64 290.095 427.592 289.981C427.545 289.867 427.465 289.769 427.362 289.7C427.259 289.631 427.138 289.595 427.014 289.595C426.848 289.595 426.689 289.661 426.572 289.778C426.455 289.895 426.389 290.054 426.389 290.22Z" fill="#914839"/>
<path d="M424.766 289.911C425.112 289.911 425.392 289.631 425.392 289.286C425.392 288.94 425.112 288.66 424.766 288.66C424.421 288.66 424.141 288.94 424.141 289.286C424.141 289.631 424.421 289.911 424.766 289.911Z" fill="#914839"/>
<path d="M434.351 288.443C433.589 289.349 432.664 289.803 432.256 289.349C431.459 288.497 433.752 287.155 432.256 285.614C430.76 284.072 426.961 284.988 426.961 284.988C421.439 270.553 413.071 271.007 408.102 273.491C403.133 275.976 402.662 280.319 402.589 282.921C402.516 285.523 402.498 286.412 406.216 288.497C409.933 290.583 406.47 293.847 405.871 296.431C405.273 299.015 408.011 298.244 409.498 300.819C410.985 303.394 408.002 304.655 408.129 303.539C408.256 302.424 407.222 300.992 406.161 301.236C405.101 301.481 402.97 300.692 402.87 299.423C402.77 298.154 401.963 295.189 400.621 294.753C395.934 293.212 393.495 297.737 394.138 301.273C394.349 302.326 394.798 303.317 395.452 304.169C396.106 305.021 396.947 305.712 397.91 306.187C397.91 306.187 395.19 307.529 390.611 301.926C389.629 300.714 388.937 299.293 388.589 297.773C387.257 292.206 389.977 285.396 392.57 281.334C395.861 276.148 397.158 275.894 397.158 275.894C398.687 272.392 400.98 269.275 403.867 266.773C408.827 262.339 413.216 266.074 413.216 266.074C417.994 262.738 423.688 264.08 425.32 267.181C426.952 270.281 426.327 275.15 426.58 276.746C426.834 278.342 428.076 281.035 431.114 281.035C434.151 281.035 435.312 282.187 435.502 284.97C435.572 286.232 435.161 287.473 434.351 288.443V288.443Z" fill="#FFEACC"/>
<path d="M434.349 288.443C433.588 289.349 432.663 289.803 432.255 289.349C431.457 288.497 433.751 287.155 432.255 285.614C430.759 284.072 426.96 284.988 426.96 284.988C421.438 270.553 413.069 271.007 408.1 273.491C403.131 275.976 402.66 280.319 402.587 282.921C402.515 285.523 402.497 286.412 406.214 288.497C409.932 290.583 406.468 293.847 405.87 296.431C405.271 299.015 408.01 298.244 409.497 300.819C410.984 303.394 408 304.655 408.127 303.539C408.254 302.424 407.221 300.992 406.16 301.236C405.099 301.481 402.968 300.692 402.869 299.423C402.769 298.154 402.152 295.678 400.602 295.044C395.823 293.076 393.72 297.764 394.364 301.273C394.602 302.345 395.094 303.345 395.797 304.189C396.501 305.032 397.396 305.696 398.408 306.123C398.408 306.123 396.032 308.662 390.61 301.925C389.632 300.711 388.941 299.291 388.588 297.773C393.266 293.502 393.031 289.195 396.159 288.261C399.985 287.119 399.487 279.512 403.893 272.077C408.3 264.642 415.744 269.91 417.584 271.669C417.584 271.669 422.907 268.949 424.493 275.894C426.08 282.839 429.653 283.9 432.064 283.664C433.497 283.519 434.685 286.004 434.349 288.443Z" fill="#EDD6B7"/>
<path d="M400.576 290.076C402.326 290.348 403.197 292.95 402.245 296.885" stroke="#C6AB8B" stroke-width="0.68003" stroke-linecap="round" stroke-linejoin="round"/>
<path d="M403.022 278.196C405.534 271.043 406.704 270.499 407.456 270.036C408.825 269.211 411.89 270.118 411.89 270.118" stroke="#C6AB8B" stroke-width="0.68003" stroke-linecap="round" stroke-linejoin="round"/>
<path d="M413.215 266.074C414.752 267.391 416.203 268.805 417.558 270.309" stroke="#C6AB8B" stroke-width="0.68003" stroke-linecap="round" stroke-linejoin="round"/>
<path d="M394.2 298.09C391.689 294.391 389.177 286.221 393.702 279.593" stroke="#C6AB8B" stroke-width="0.68003" stroke-linecap="round" stroke-linejoin="round"/>
<path d="M396.705 294.971C394.891 291.227 393.477 284.028 397.158 275.931" stroke="#C6AB8B" stroke-width="0.68003" stroke-linecap="round" stroke-linejoin="round"/>
<path d="M419.743 283.665C418.609 287.89 420.278 289.603 422.263 290.12C424.249 290.637 425.836 291.653 425.609 293.412" stroke="#934735" stroke-width="0.68003" stroke-linecap="round" stroke-linejoin="round"/>
<path d="M408.436 285.396C409.343 286.303 414.783 282.749 413.387 280.654C411.991 278.56 407.113 284.127 408.436 285.396Z" fill="#FFEACC"/>
<path d="M418.349 279.375C418.349 281.506 423.789 280.354 423.689 279.656C423.526 278.396 418.34 277.426 418.349 279.375Z" fill="#FFEACC"/>
<path d="M418.192 296.593C419.009 297.383 420.03 297.929 421.14 298.169C422.25 298.41 423.406 298.335 424.476 297.953" stroke="#934735" stroke-width="0.68003" stroke-linecap="round" stroke-linejoin="round"/>
<path d="M403.867 300.811V306.07C402.105 306.661 400.203 306.686 398.427 306.142H398.336C397.1 305.714 396.024 304.92 395.249 303.866C394.475 302.812 394.04 301.547 394.002 300.239C393.942 299.39 394.08 298.538 394.406 297.752C394.732 296.965 395.236 296.265 395.879 295.706V295.706C396.307 295.341 396.794 295.053 397.32 294.854C398.41 294.568 399.565 294.674 400.585 295.153C402.126 295.788 402.743 298.218 402.851 299.532C402.909 299.81 403.031 300.07 403.207 300.292C403.383 300.514 403.609 300.692 403.867 300.811Z" fill="#B25E47"/>
<path d="M396.134 299.622C396.669 298.253 400.223 296.73 401.9 300.465" stroke="#934735" stroke-width="0.68003" stroke-linecap="round" stroke-linejoin="round"/>
<path d="M401.627 299.904C397.738 297.646 396.133 303.431 401.174 303.077" stroke="#934735" stroke-width="0.68003" stroke-linecap="round" stroke-linejoin="round"/>
<path d="M403.868 306.051C401.871 306.744 399.69 306.68 397.738 305.87" stroke="#934735" stroke-width="0.68003" stroke-linecap="round" stroke-linejoin="round"/>
</g>
<g filter="url(#filter3_d_618_92)">
<path d="M596.063 329.227C595.401 333.443 592.499 337.161 588.628 339.781C581.22 344.831 570.222 345.919 564.482 339.11C557.31 330.614 539.294 290.647 533.01 276.484C531.641 273.374 530.825 271.497 530.825 271.497C531.351 252.774 545.233 244.668 559.142 245.311C573.05 245.955 582.535 255.847 583.269 270.753C584.003 285.66 578.001 307.593 582.136 312.136C586.27 316.678 598.003 316.914 596.063 329.227Z" fill="#D39933"/>
<path d="M591.056 333.552C590.601 335.75 589.779 337.856 588.626 339.781C581.218 344.832 570.22 345.92 564.481 339.11C557.309 330.614 539.292 290.647 533.009 276.484C537.379 256.129 548.096 249.8 560.056 251.776C572.179 253.789 577.374 270.137 573.52 277.282C569.667 284.427 559.847 298.499 564.852 307.367C569.857 316.234 568.987 317.911 574.826 319.308C580.665 320.704 592.851 323.606 591.056 333.552Z" fill="#C4892A"/>
<path d="M535.422 268.269C537.788 255.348 549.929 252.991 555.261 254.251" stroke="#EDB65F" stroke-width="0.68003" stroke-linecap="round" stroke-linejoin="round"/>
<path d="M544.317 266.619C551.1 260.897 560.937 262.829 560.874 267.743C560.81 272.657 560.439 276.33 563.268 278.324C566.096 280.319 570.313 284.553 567.919 290.51" stroke="#EDB65F" stroke-width="0.68003" stroke-linecap="round" stroke-linejoin="round"/>
<path d="M573.785 297.03C571.971 307.702 570.847 312.933 575.662 314.402C580.476 315.871 582.081 317.476 581.038 319.779C579.996 322.082 578.663 323.052 581.809 324.24C584.955 325.428 585.227 329.408 585.227 329.408" stroke="#EDB65F" stroke-width="0.68003" stroke-linecap="round" stroke-linejoin="round"/>
<path d="M540.717 396.351C535.14 424.069 525.493 452.957 515.818 466.63C513.035 470.556 510.269 473.231 507.586 474.265C484.193 483.332 474.654 472.397 477.329 439.429C478.87 420.388 489.016 385.498 502.717 360.137C512.536 342.003 524.169 328.765 535.802 329.763C548.242 330.851 547.472 362.749 540.717 396.351Z" fill="#537E3E"/>
<path d="M540.718 396.351C538.004 395.426 535.524 393.922 533.449 391.943C531.375 389.964 529.755 387.558 528.704 384.89C527.359 381.39 525.638 378.046 523.572 374.917C518.54 367.373 511.54 361.706 502.718 360.092C512.537 341.958 524.17 328.72 535.803 329.717C548.243 330.851 547.473 362.749 540.718 396.351Z" fill="#619049"/>
<path d="M523.59 377.5C512.301 378.806 509.88 382.288 511.222 390.149C512.564 398.01 496.316 389.487 491.936 398.772C487.557 408.057 509.073 442.729 509.463 442.928L516.037 446.283L528.495 431.776L536.782 411.429L536.918 392.815L523.59 377.5Z" fill="#537E3E"/>
<path d="M623.247 383.848C623.065 387.91 621.624 401.927 619.81 418.683C616.682 447.453 612.43 484.283 611.459 492.707L608.132 491.845C594.631 488.364 580.024 485.244 564.465 482.434C548.906 479.623 532.522 477.148 515.385 474.971C515.521 472.532 515.666 469.704 515.82 466.63C516.6 450.726 517.506 428.24 516.781 419.073C515.611 404.339 514.913 393.812 519.819 384.455C521.37 381.416 522.633 378.237 523.59 374.962C526.12 366.647 527.471 357.163 527.308 350.943C527.108 343.608 522.901 332.31 535.831 329.762C539.189 329.199 542.606 329.081 545.995 329.409C570.966 331.222 576.071 329.409 576.071 329.409C592.192 326.535 605.566 330.08 609.301 331.386L609.646 331.512C615.086 333.525 620.2 341.051 622.34 356.973C623.429 365.887 623.732 374.88 623.247 383.848Z" fill="#537E3E"/>
<path d="M589.835 397.711C571.982 389.333 559.651 408.591 560.576 423.842C561.764 443.236 539.114 419.535 529.503 440.589C521.869 457.318 559.687 472.324 579.58 456.003C599.474 439.682 613.935 409.008 589.835 397.711Z" fill="#537E3E"/>
<path d="M622.377 356.973C610.191 355.005 594.813 360.799 585.492 369.213C581.593 372.749 578.755 376.748 577.658 380.828C573.941 394.737 554.383 401.392 540.719 396.351C538.005 395.426 535.525 393.922 533.45 391.943C531.376 389.964 529.757 387.557 528.705 384.89C527.36 381.39 525.639 378.046 523.573 374.916C526.103 366.602 527.454 357.118 527.291 350.898C527.091 343.562 522.884 332.265 535.814 329.717C539.172 329.154 542.589 329.035 545.978 329.363C570.949 331.177 576.053 329.363 576.053 329.363C592.175 326.489 605.549 330.034 609.284 331.34L609.629 331.467C615.087 333.525 620.21 341.051 622.377 356.973Z" fill="#619149"/>
<path d="M515.385 474.971C515.521 472.532 515.666 469.703 515.82 466.629C516.6 450.725 517.506 428.239 516.781 419.072C515.611 404.338 514.913 393.811 519.819 384.454C521.37 381.415 522.633 378.236 523.59 374.961C525.286 369.308 526.437 363.506 527.027 357.634" stroke="#619049" stroke-width="0.68003" stroke-linecap="round" stroke-linejoin="round"/>
<path d="M571.637 329.409C572.027 332.274 554.265 352.702 546.839 350.825C539.413 348.948 543.212 329.672 543.212 329.672C543.212 329.672 542.759 328.366 542.061 326.444C540.347 321.675 537.21 313.043 536.067 310.685C534.756 308.019 533.709 305.231 532.939 302.362C527.281 280.809 545.434 272.495 555.244 294.337C565.164 316.361 571.238 326.535 571.637 329.409Z" fill="#FEBD9D"/>
<path d="M542.079 326.444C540.366 321.675 537.229 313.043 536.086 310.686C534.775 308.02 533.728 305.232 532.958 302.362C539.423 298.155 548.472 301.927 551.999 309.317C555.408 316.498 550.92 324.948 542.079 326.444Z" fill="#F4A789"/>
<path d="M542.585 327.84C544.181 331.095 543.927 331.73 543.927 333.507C543.927 335.284 544.335 344.26 543.528 347.715C543.528 347.715 539.566 343.49 537.426 344.188C535.286 344.886 531.877 347.715 531.877 347.715L537.961 332.301C539.239 328.982 540.989 327.776 542.585 327.84Z" fill="#F7AD2B"/>
<path d="M576.079 329.409C576.151 327.595 571.092 324.195 570.339 325.891C566.205 335.248 555.478 347.289 551.761 349.873C553.375 350.27 554.908 350.942 556.294 351.859C558.371 353.355 562.215 360.119 562.215 360.119C562.215 360.119 575.326 347.715 576.079 329.409Z" fill="#F7AD2B"/>
<path d="M542.577 358.931C542.577 359.519 542.752 360.094 543.078 360.583C543.405 361.072 543.87 361.454 544.413 361.679C544.956 361.904 545.554 361.963 546.131 361.848C546.708 361.733 547.238 361.45 547.654 361.034C548.07 360.618 548.353 360.088 548.468 359.511C548.583 358.934 548.524 358.336 548.299 357.793C548.074 357.249 547.693 356.785 547.203 356.458C546.714 356.131 546.139 355.957 545.551 355.957C544.762 355.957 544.006 356.27 543.448 356.828C542.89 357.386 542.577 358.142 542.577 358.931V358.931Z" fill="white"/>
<path d="M541.053 369.894C541.051 370.484 541.224 371.062 541.551 371.554C541.878 372.045 542.343 372.429 542.888 372.656C543.433 372.884 544.033 372.944 544.612 372.83C545.191 372.716 545.724 372.432 546.142 372.016C546.56 371.599 546.845 371.067 546.961 370.488C547.077 369.909 547.018 369.309 546.793 368.764C546.567 368.218 546.185 367.752 545.694 367.423C545.203 367.095 544.626 366.92 544.036 366.92C543.644 366.919 543.257 366.995 542.895 367.144C542.533 367.293 542.204 367.512 541.927 367.788C541.65 368.064 541.43 368.392 541.28 368.754C541.13 369.115 541.053 369.503 541.053 369.894Z" fill="white"/>
<path d="M608.131 491.845C594.63 488.364 580.023 485.245 564.464 482.434C564.822 481.356 565.345 480.341 566.014 479.424C574.873 466.639 581.537 452.485 602.419 458.678C610.905 461.199 606.571 475.452 602.419 480.439C598.094 485.571 609.99 485.707 608.131 491.845Z" fill="#537E3E"/>
<path d="M489.825 476.866C470.785 473.837 465.236 445.312 462.316 430.705C460.149 419.825 455.788 392.161 453.702 378.688C452.977 374.045 452.523 371.089 452.523 371.089C452.523 371.089 462.153 372.803 471.945 363.7C472.544 365.196 473.514 367.272 474.747 369.802C483.678 388.208 506.944 430.433 511.224 444.795C516.084 461.134 508.63 479.867 489.825 476.866Z" fill="#537E3E"/>
<path d="M462.316 430.705C461.309 425.637 459.822 416.914 458.308 407.684C456.576 397.112 454.817 385.878 453.702 378.669C452.977 374.027 452.523 371.071 452.523 371.071" stroke="#83ADDF" stroke-width="0.68003" stroke-linecap="round" stroke-linejoin="round"/>
<path d="M471.944 363.7C469.686 359.167 464.092 350.544 458.779 346.563C455.931 344.442 452.432 344.46 451.226 345.312C451.226 345.312 441.524 343.871 434.152 345.666C426.781 347.461 425.611 351.514 428.667 351.868C431.722 352.221 436.936 350.435 440.717 350.344C440.717 350.344 436.9 351.251 436.981 354.769C436.075 354.234 433.944 355.631 434.397 358.505C434.397 358.505 432.874 356.909 432.266 359.865C431.659 362.821 434.234 367.173 437.19 367.336C440.146 367.499 439.819 365.369 439.819 365.369C439.819 365.369 442.231 369.793 452.513 371.09C452.513 371.09 454.327 374.236 454.327 374.073C454.327 373.91 472.252 375.741 471.944 363.7Z" fill="#FEBD9D"/>
<path d="M458.779 346.563C455.931 344.442 452.432 344.46 451.226 345.312C451.226 345.312 441.524 343.871 434.152 345.666C426.781 347.461 425.611 351.514 428.667 351.868C431.722 352.221 436.936 350.435 440.717 350.344C440.717 350.344 436.9 351.251 436.981 354.769C436.075 354.234 433.944 355.631 434.397 358.505C434.397 358.505 432.874 356.909 432.266 359.865C431.659 362.821 434.234 367.173 437.19 367.336C440.146 367.499 439.819 365.369 439.819 365.369" stroke="#EF8A66" stroke-width="0.68003" stroke-linecap="round" stroke-linejoin="round"/>
<path d="M440.755 350.345C442.563 350.149 444.387 350.149 446.195 350.345" stroke="#EF8A66" stroke-width="0.68003" stroke-linecap="round" stroke-linejoin="round"/>
<path d="M434.406 358.505C435.694 361.833 437.398 364.109 439.846 365.369C442.295 366.629 445.504 362.957 445.341 361.932C446.574 361.08 447.372 359.158 444.897 357.653" stroke="#EF8A66" stroke-width="0.68003" stroke-linecap="round" stroke-linejoin="round"/>
<path d="M436.981 354.769C437.661 358.332 439.983 362.812 445.314 361.932" stroke="#EF8A66" stroke-width="0.68003" stroke-linecap="round" stroke-linejoin="round"/>
<path d="M459.958 362.467C453.883 359.747 452.822 356.021 452.523 353.201C452.523 353.201 444 359.421 442.032 357.834C439.584 355.848 449.286 346.446 451.226 345.312" stroke="#EF8A66" stroke-width="0.68003" stroke-linecap="round" stroke-linejoin="round"/>
<path d="M474.747 369.802C469.388 374.762 462.815 378.969 453.702 378.688C452.977 374.045 452.523 371.089 452.523 371.089C452.523 371.089 462.153 372.803 471.945 363.7C472.544 365.187 473.514 367.272 474.747 369.802Z" fill="#F7AD2B"/>
<path d="M469.389 368.578C469.389 368.91 469.487 369.235 469.672 369.511C469.857 369.787 470.119 370.002 470.426 370.129C470.733 370.256 471.071 370.288 471.397 370.223C471.722 370.157 472.021 369.997 472.255 369.761C472.49 369.526 472.649 369.226 472.712 368.9C472.776 368.574 472.742 368.236 472.613 367.93C472.485 367.624 472.268 367.362 471.991 367.179C471.714 366.996 471.389 366.899 471.057 366.901C470.837 366.901 470.619 366.944 470.416 367.029C470.213 367.113 470.029 367.237 469.874 367.393C469.719 367.549 469.596 367.734 469.513 367.937C469.43 368.141 469.388 368.358 469.389 368.578V368.578Z" fill="white"/>
<path d="M621.128 420.326C616.168 437.49 610.429 454.31 607.31 463.495C599.621 486.217 571.177 499.763 567.913 478.963C564.032 454.228 580.607 409.6 586.546 372.752C586.646 372.162 586.727 371.528 586.809 370.857C588.423 357.845 588.232 331.098 605.36 332.068C607.149 332.166 608.919 332.489 610.628 333.029L610.973 333.156C620.819 336.547 626.151 347.273 628.608 359.913C629.451 364.361 629.978 368.864 630.186 373.386C630.712 383.75 626.359 402.238 621.128 420.326Z" fill="#537E3E"/>
<path d="M628.608 359.913C627.018 359.315 625.371 358.881 623.693 358.616C611.507 356.648 596.13 362.442 586.809 370.857C588.423 357.845 588.232 331.098 605.36 332.068C607.149 332.166 608.919 332.489 610.628 333.029L610.972 333.156C620.819 336.547 626.132 347.273 628.608 359.913Z" fill="#619049"/>
<path d="M569.582 449.341C573.209 428.922 580.372 404.767 584.797 382.471" stroke="#619049" stroke-width="0.68003" stroke-linecap="round" stroke-linejoin="round"/>
<path d="M617.247 433.255C613.411 445.559 609.63 456.648 607.273 463.494C604.944 470.221 600.977 476.263 595.73 481.075" stroke="#537E3E" stroke-width="0.68003" stroke-linecap="round" stroke-linejoin="round"/>
<path d="M584.787 382.471C586.601 375.326 590.644 370.684 593.147 370.312" stroke="#537E3E" stroke-width="0.68003" stroke-linecap="round" stroke-linejoin="round"/>
<path d="M414.837 373.566C419.053 370.619 426.624 371.816 435.691 381.726C441.285 387.956 445.83 395.055 449.147 402.743C455.595 398.081 463.049 395 470.908 393.749C483.728 391.836 499.641 397.566 499.641 397.566L502.116 404.502L449.518 411.43L414.837 373.566Z" fill="#F9F9F9" stroke="#EDEDED" stroke-width="0.906706" stroke-linecap="round" stroke-linejoin="round"/>
<path d="M452.519 405.164L505.28 400.948L526.197 458.188L475.676 462.268L452.519 405.164Z" fill="#F9F9F9" stroke="#DDDDDD" stroke-width="0.906706" stroke-linecap="round" stroke-linejoin="round"/>
<path d="M412.525 369.894L446.482 404.539L469.521 458.778L436.635 427.678L412.525 369.894Z" fill="#F9F9F9" stroke="#DDDDDD" stroke-width="0.906706" stroke-linecap="round" stroke-linejoin="round"/>
<path d="M446.48 404.538L452.519 405.164L475.676 462.268L469.52 458.777L446.48 404.538Z" fill="#F9F9F9" stroke="#DDDDDD" stroke-width="0.906706" stroke-linecap="round" stroke-linejoin="round"/>
<path d="M436.027 387.356C440.987 392.371 446.001 401.02 446.001 401.02" stroke="#EDEDED" stroke-width="0.906706" stroke-linecap="round" stroke-linejoin="round"/>
<path d="M452.538 402.726C456.918 400.2 461.662 398.365 466.601 397.286" stroke="#EDEDED" stroke-width="0.906706" stroke-linecap="round" stroke-linejoin="round"/>
<path d="M453.154 403.722C457.688 401.736 466.918 399.996 466.918 399.996" stroke="#EDEDED" stroke-width="0.906706" stroke-linecap="round" stroke-linejoin="round"/>
<path d="M443.581 402.879C444.932 400.214 452.567 398.346 454.063 406.506C452.353 407.468 450.377 407.85 448.432 407.594C446.809 407.286 443.581 402.879 443.581 402.879Z" fill="#F9F9F9" stroke="#DDDDDD" stroke-width="0.906706" stroke-linecap="round" stroke-linejoin="round"/>
<path d="M502.852 432.909C497.967 430.192 493.487 426.805 489.542 422.845C485.824 419.218 476.15 414.403 475.243 414.965C474.336 415.528 473.629 418.012 478.734 422.509C480.297 423.762 481.608 425.3 482.596 427.043C480.773 427.707 478.809 427.894 476.893 427.587C473.629 427.088 459.856 426.181 458.197 426.009C456.538 425.837 456.202 428.086 458.686 429.083C454.697 428.484 453.6 430.851 457.199 433.045C457.199 433.045 454.08 433.879 457.725 436.59C460.821 438.726 464.077 440.621 467.463 442.257C467.463 442.257 460.046 440.108 459.085 440.244C458.124 440.38 457.589 441.913 460.137 443.273C462.685 444.633 480.511 451.524 483.594 452.431C487.375 453.528 494.991 454.833 494.991 454.833C494.991 454.833 504.167 441.595 502.852 432.909Z" fill="#FEBD9D"/>
<path d="M576.912 487.593C559.621 488.772 516.28 468.253 499.343 460.175C495.879 458.534 493.522 457.455 492.715 457.092C492.715 457.092 493.059 436.482 504.058 432.357C505.486 433.151 507.009 433.76 508.591 434.17C510.644 434.767 512.748 435.177 514.875 435.394C522.128 436.201 544.742 439.556 557.055 440.554C569.368 441.551 584.936 449.974 590.503 459.984C594.32 466.848 593.985 486.451 576.912 487.593Z" fill="#537E3E"/>
<path d="M576.912 487.592C559.621 488.771 516.28 468.252 499.343 460.174C495.879 458.533 493.522 457.454 492.715 457.091" stroke="#83ADDF" stroke-width="0.68003" stroke-linecap="round" stroke-linejoin="round"/>
<path d="M504.059 432.375C505.487 433.169 507.01 433.778 508.592 434.188C510.645 434.786 512.748 435.195 514.876 435.412C522.129 436.219 544.742 439.574 557.056 440.572C565.216 441.234 574.727 445.105 581.881 450.545" stroke="#83ADDF" stroke-width="0.68003" stroke-linecap="round" stroke-linejoin="round"/>
<path d="M484.364 419.064C480.329 416.607 475.841 414.594 475.243 414.966C474.336 415.528 473.629 418.012 478.734 422.51C480.297 423.762 481.608 425.301 482.596 427.043C480.773 427.707 478.809 427.894 476.893 427.587C473.629 427.088 459.856 426.182 458.197 426.009C456.538 425.837 456.202 428.086 458.686 429.083C454.697 428.485 453.6 430.851 457.199 433.046C457.199 433.046 454.08 433.88 457.725 436.591C460.821 438.727 464.077 440.621 467.463 442.258C467.463 442.258 460.046 440.109 459.085 440.245C458.124 440.381 457.589 441.913 460.137 443.273C460.89 443.672 463.011 444.57 465.695 445.658" stroke="#EF8A66" stroke-width="0.68003" stroke-linecap="round" stroke-linejoin="round"/>
<path d="M508.628 434.234C503.323 438.241 499.624 449.956 499.343 460.193C495.879 458.552 493.522 457.473 492.715 457.11C492.715 457.11 493.059 436.501 504.058 432.375C505.495 433.187 507.031 433.812 508.628 434.234V434.234Z" fill="#F7AD2B"/>
<path d="M494.584 453.627C494.582 454.002 494.692 454.369 494.899 454.682C495.106 454.995 495.401 455.239 495.748 455.384C496.094 455.529 496.475 455.568 496.843 455.495C497.211 455.423 497.55 455.244 497.816 454.979C498.082 454.714 498.263 454.377 498.337 454.009C498.411 453.641 498.374 453.259 498.231 452.913C498.087 452.566 497.845 452.269 497.533 452.061C497.221 451.852 496.854 451.741 496.479 451.741C495.978 451.741 495.497 451.939 495.142 452.293C494.787 452.646 494.586 453.126 494.584 453.627V453.627Z" fill="white"/>
<path d="M467.463 442.258C469.811 442.983 471.57 443.681 471.57 443.681" stroke="#EF8A66" stroke-width="0.68003" stroke-linecap="round" stroke-linejoin="round"/>
<path d="M457.2 433.009L472.877 438.467" stroke="#EF8A66" stroke-width="0.68003" stroke-linecap="round" stroke-linejoin="round"/>
<path d="M458.687 429.047L473.393 433.009" stroke="#EF8A66" stroke-width="0.68003" stroke-linecap="round" stroke-linejoin="round"/>
<path d="M556.241 298.997C552.361 308.463 542.396 324.793 530.455 316.796C527.961 315.095 525.809 312.942 524.108 310.449C521.877 307.2 520.249 303.576 519.302 299.75C517.917 294.353 517.716 288.721 518.713 283.239C519.059 281.351 519.591 279.501 520.299 277.717C525.205 265.649 541.081 266.61 546.929 272.467C547.093 272.63 547.274 272.812 547.455 273.011C550.396 276.515 552.706 280.504 554.283 284.798C554.519 285.403 554.736 286.007 554.936 286.612C556.649 291.445 557.356 296.277 556.241 298.997Z" fill="#FEBD9D"/>
<path d="M522.231 296.649C522.231 296.911 522.308 297.168 522.454 297.385C522.6 297.603 522.807 297.773 523.05 297.873C523.292 297.973 523.559 297.998 523.816 297.947C524.073 297.895 524.309 297.768 524.494 297.582C524.678 297.396 524.804 297.159 524.854 296.902C524.904 296.644 524.876 296.378 524.775 296.136C524.673 295.894 524.502 295.688 524.283 295.544C524.064 295.4 523.807 295.323 523.545 295.325C523.372 295.325 523.2 295.36 523.04 295.426C522.88 295.493 522.735 295.59 522.612 295.713C522.49 295.837 522.393 295.983 522.328 296.143C522.262 296.304 522.229 296.476 522.231 296.649V296.649Z" fill="#683F1D"/>
<path d="M529.502 294.337C529.502 294.599 529.58 294.855 529.725 295.073C529.871 295.291 530.077 295.46 530.319 295.561C530.561 295.661 530.827 295.687 531.084 295.636C531.341 295.585 531.577 295.459 531.762 295.274C531.947 295.088 532.073 294.853 532.124 294.596C532.175 294.339 532.149 294.073 532.049 293.831C531.949 293.589 531.779 293.382 531.561 293.237C531.344 293.091 531.088 293.014 530.826 293.014C530.652 293.012 530.479 293.046 530.318 293.112C530.157 293.178 530.01 293.276 529.887 293.399C529.764 293.522 529.666 293.668 529.6 293.829C529.534 293.991 529.501 294.163 529.502 294.337Z" fill="#683F1D"/>
<path d="M553.376 298.498C558.925 299.976 565.317 293.058 562.089 287.327C558.861 281.597 552.532 285.224 551.762 289.295L553.376 298.498Z" fill="#FEBD9D"/>
<path d="M553.376 298.499C554.37 298.748 555.41 298.748 556.404 298.499" stroke="#EF8A66" stroke-width="0.68003" stroke-linecap="round" stroke-linejoin="round"/>
<path d="M554.282 292.587C554.79 287.936 558.988 287.709 560.067 289.804" stroke="#EF8A66" stroke-width="0.68003" stroke-linecap="round" stroke-linejoin="round"/>
<path d="M554.418 291.745C557.99 287.864 562.479 294.356 555.424 294.927" stroke="#EF8A66" stroke-width="0.68003" stroke-linecap="round" stroke-linejoin="round"/>
<path d="M554.935 286.548C554.909 286.717 554.873 286.883 554.826 287.047C554.019 289.903 551.009 288.48 549.785 285.769C548.37 282.559 540.092 271.007 532.63 278.923C527.099 284.78 522.547 285.569 518.712 283.239C519.037 281.451 519.535 279.699 520.199 278.007C520.227 277.909 520.26 277.812 520.299 277.717C525.204 265.649 541.08 266.61 546.929 272.467C547.092 272.63 547.273 272.812 547.455 273.011C550.395 276.515 552.706 280.504 554.282 284.798C554.518 285.367 554.735 285.95 554.935 286.548Z" fill="#D39933"/>
<path d="M554.826 287.047C554.019 289.903 551.009 288.48 549.785 285.769C548.37 282.559 540.092 271.007 532.63 278.923C527.099 284.78 522.547 285.569 518.712 283.239C519.037 281.451 519.535 279.699 520.199 278.007C524.905 279.966 529.266 277.182 532.14 274.825C535.767 271.914 540.174 272.15 544.716 275.323C548.724 278.143 552.124 287.537 554.826 287.047Z" fill="#C4892A"/>
<path d="M523.454 284.373C522.72 276.213 526.12 270.954 528.894 269.376" stroke="#EDB65F" stroke-width="0.68003" stroke-linecap="round" stroke-linejoin="round"/>
<path d="M525.632 283.964C525.976 280.645 531.924 268.55 538.652 268.55" stroke="#EDB65F" stroke-width="0.68003" stroke-linecap="round" stroke-linejoin="round"/>
<path d="M533.237 278.361C535.35 273.229 537.952 269.947 541.053 269.122" stroke="#EDB65F" stroke-width="0.68003" stroke-linecap="round" stroke-linejoin="round"/>
<path d="M545.824 271.506C546.322 275.704 545.923 278.479 544.699 279.159" stroke="#EDB65F" stroke-width="0.68003" stroke-linecap="round" stroke-linejoin="round"/>
<path d="M548.379 274.099C549.766 279.494 548.606 281.924 547.799 282.55" stroke="#EDB65F" stroke-width="0.68003" stroke-linecap="round" stroke-linejoin="round"/>
<path d="M524.172 292.08C526.647 293.077 527.799 294.8 527.182 296.377C526.421 298.336 525.169 301.818 527.563 303.341" stroke="#EF8A66" stroke-width="0.68003" stroke-linecap="round" stroke-linejoin="round"/>
<path d="M527.207 287.501C527.461 289.486 534.543 287.501 534.815 286.331C535.177 284.744 526.763 284.001 527.207 287.501Z" fill="#D39933"/>
<path d="M523.264 289.287C524.17 290.91 517.823 293.213 516.917 292.451C515.865 291.454 521.777 286.422 523.264 289.287Z" fill="#D39933"/>
<path d="M531.353 305.734C532.512 305.271 533.565 304.577 534.449 303.695C535.332 302.813 536.028 301.761 536.494 300.603C536.494 300.603 538.851 304.719 536.067 306.85C533.937 308.473 531.353 305.734 531.353 305.734Z" fill="white" stroke="#EF8A66" stroke-width="0.68003" stroke-linecap="round" stroke-linejoin="round"/>
<path d="M542.895 300.711C546.28 300.711 549.024 297.967 549.024 294.582C549.024 291.197 546.28 288.453 542.895 288.453C539.51 288.453 536.766 291.197 536.766 294.582C536.766 297.967 539.51 300.711 542.895 300.711Z" fill="#F4AF90"/>
<path d="M526.238 305.816C526.242 306.697 526.054 307.568 525.686 308.368C525.318 309.169 524.779 309.879 524.107 310.449C521.877 307.2 520.249 303.576 519.302 299.75C519.569 299.71 519.839 299.689 520.109 299.687C521.734 299.687 523.293 300.332 524.443 301.482C525.592 302.631 526.238 304.19 526.238 305.816Z" fill="#F4AF90"/>
</g>
<line x1="1" y1="1.5" x2="730" y2="1.49994" stroke="#52695B" stroke-width="3"/>
<line x1="728.5" y1="1.00243" x2="727.5" y2="619.002" stroke="#52695B" stroke-width="3"/>
<defs>
<filter id="filter0_d_618_92" x="0.0927734" y="55.0933" width="714.062" height="512.483" filterUnits="userSpaceOnUse" color-interpolation-filters="sRGB">
<feFlood flood-opacity="0" result="BackgroundImageFix"/>
<feColorMatrix in="SourceAlpha" type="matrix" values="0 0 0 0 0 0 0 0 0 0 0 0 0 0 0 0 0 0 127 0" result="hardAlpha"/>
<feOffset dx="7.12366" dy="7.12366"/>
<feGaussianBlur stdDeviation="3.56183"/>
<feComposite in2="hardAlpha" operator="out"/>
<feColorMatrix type="matrix" values="0 0 0 0 0 0 0 0 0 0 0 0 0 0 0 0 0 0 0.25 0"/>
<feBlend mode="normal" in2="BackgroundImageFix" result="effect1_dropShadow_618_92"/>
<feBlend mode="normal" in="SourceGraphic" in2="effect1_dropShadow_618_92" result="shape"/>
</filter>
<filter id="filter1_d_618_92" x="11.8803" y="266.509" width="270.512" height="264.436" filterUnits="userSpaceOnUse" color-interpolation-filters="sRGB">
<feFlood flood-opacity="0" result="BackgroundImageFix"/>
<feColorMatrix in="SourceAlpha" type="matrix" values="0 0 0 0 0 0 0 0 0 0 0 0 0 0 0 0 0 0 127 0" result="hardAlpha"/>
<feOffset dy="7.12366"/>
<feGaussianBlur stdDeviation="3.56183"/>
<feComposite in2="hardAlpha" operator="out"/>
<feColorMatrix type="matrix" values="0 0 0 0 0 0 0 0 0 0 0 0 0 0 0 0 0 0 0.25 0"/>
<feBlend mode="normal" in2="BackgroundImageFix" result="effect1_dropShadow_618_92"/>
<feBlend mode="normal" in="SourceGraphic" in2="effect1_dropShadow_618_92" result="shape"/>
</filter>
<filter id="filter2_d_618_92" x="275.988" y="260.492" width="215.536" height="284.247" filterUnits="userSpaceOnUse" color-interpolation-filters="sRGB">
<feFlood flood-opacity="0" result="BackgroundImageFix"/>
<feColorMatrix in="SourceAlpha" type="matrix" values="0 0 0 0 0 0 0 0 0 0 0 0 0 0 0 0 0 0 127 0" result="hardAlpha"/>
<feOffset dy="7.12366"/>
<feGaussianBlur stdDeviation="3.56183"/>
<feComposite in2="hardAlpha" operator="out"/>
<feColorMatrix type="matrix" values="0 0 0 0 0 0 0 0 0 0 0 0 0 0 0 0 0 0 0.25 0"/>
<feBlend mode="normal" in2="BackgroundImageFix" result="effect1_dropShadow_618_92"/>
<feBlend mode="normal" in="SourceGraphic" in2="effect1_dropShadow_618_92" result="shape"/>
</filter>
<filter id="filter3_d_618_92" x="404.949" y="245.276" width="232.404" height="261.678" filterUnits="userSpaceOnUse" color-interpolation-filters="sRGB">
<feFlood flood-opacity="0" result="BackgroundImageFix"/>
<feColorMatrix in="SourceAlpha" type="matrix" values="0 0 0 0 0 0 0 0 0 0 0 0 0 0 0 0 0 0 127 0" result="hardAlpha"/>
<feOffset dy="7.12366"/>
<feGaussianBlur stdDeviation="3.56183"/>
<feComposite in2="hardAlpha" operator="out"/>
<feColorMatrix type="matrix" values="0 0 0 0 0 0 0 0 0 0 0 0 0 0 0 0 0 0 0.25 0"/>
<feBlend mode="normal" in2="BackgroundImageFix" result="effect1_dropShadow_618_92"/>
<feBlend mode="normal" in="SourceGraphic" in2="effect1_dropShadow_618_92" result="shape"/>
</filter>
</defs>
</svg>
