<svg width="707" height="605" viewBox="0 0 707 605" fill="none" xmlns="http://www.w3.org/2000/svg">
<path d="M208.955 399.839C202.165 402.157 193.72 403.399 184.446 397.934C174.51 392.056 167.969 380.878 162.256 370.61C154.804 357.197 147.931 345.853 134.849 338.732C125.492 333.599 115.474 330.784 106.614 322.421C96.1812 312.65 91.296 298.906 89.64 287.479C87.8184 274.148 89.8056 262.142 85.2516 247.901C82.5192 239.29 77.7997 231.755 70.6789 225.131C65.5453 220.328 59.9977 216.271 54.9469 211.469C38.3869 195.82 33.1704 173.96 41.6988 164.024C47.0808 152.267 62.1504 149.866 78.876 161.54C92.2068 170.897 99.6588 185.718 109.181 199.049C119.531 213.456 130.626 219.252 143.626 224.386C152.568 227.863 162.007 231.175 170.618 238.793C179.23 246.328 184.529 256.595 188.834 266.531C194.051 278.702 198.688 292.861 209.783 302.383C215.662 307.434 222.203 310.498 228.164 315.797C232.139 319.44 235.699 323.828 238.597 328.382C254.412 353.388 248.036 375.247 235.534 385.928C228.082 392.304 218.56 396.61 208.955 399.839Z" fill="#2A794A"/>
<path d="M70.3474 177.77C84.589 198.194 98.9134 218.535 113.321 238.794C114.093 232.004 114.894 225.215 115.722 218.425C115.887 216.521 118.951 216.852 118.703 218.839L116.053 241.443C115.97 241.692 115.887 241.94 115.722 242.189C127.921 259.356 140.203 276.468 152.568 293.525C154.003 278.897 155.466 264.269 156.956 249.641C157.205 247.736 160.185 248.067 159.937 250.055C158.391 265.731 156.818 281.436 155.217 297.168C166.313 312.569 177.573 327.887 188.751 343.205C190.297 329.736 191.815 316.267 193.305 302.798C193.554 300.894 196.535 301.225 196.286 303.129C194.685 317.702 193.057 332.247 191.401 346.765C191.732 347.262 192.063 347.731 192.395 348.173C192.45 348.173 192.477 348.173 192.477 348.173C193.14 348.421 193.388 349.001 193.388 349.497C200.509 359.157 207.63 368.817 214.751 378.477C217.649 365.229 219.801 351.981 221.209 338.568C221.457 336.581 224.438 336.995 224.19 338.899C222.699 353.306 220.381 367.548 217.152 381.624C226.094 393.713 235.064 405.746 244.062 417.725C245.221 419.298 242.82 421.119 241.661 419.546C232.773 407.733 223.914 395.865 215.082 383.942C214.916 383.887 214.778 383.832 214.668 383.777C214.337 384.522 213.674 385.019 212.763 384.687C199.295 379.554 185.853 374.42 172.44 369.287C170.618 368.541 171.777 365.809 173.599 366.471L213.426 381.707C205.753 371.384 198.108 361.034 190.49 350.657C175.807 345.192 161.124 339.727 146.441 334.262C144.619 333.6 145.778 330.867 147.517 331.53C160.765 336.443 174.013 341.355 187.261 346.268C175.917 330.785 164.574 315.301 153.313 299.735C153.092 299.79 152.844 299.762 152.568 299.652C135.345 294.021 118.123 288.363 100.901 282.678C99.079 282.098 100.238 279.283 102.06 279.863C118.233 285.217 134.379 290.544 150.498 295.843C138.354 279.007 126.265 262.171 114.231 245.335C114.011 245.335 113.79 245.28 113.569 245.169L82.519 228.941C80.863 228.03 81.9394 225.297 83.6782 226.125C92.6758 230.817 101.646 235.509 110.588 240.201C96.2914 220.053 82.0774 199.85 67.9462 179.592C66.8698 178.019 69.271 176.114 70.3474 177.77Z" fill="#FAEDEC"/>
<path d="M389.294 419.96C426.802 425.425 463.731 434.45 501.57 437.928C543.798 441.819 586.523 440.577 629 438.342C646.305 437.431 663.279 447.946 669.903 462.602C675.119 474.028 667.336 486.862 659.056 496.798C602.918 564.198 509.85 589.948 418.025 577.86C391.364 574.382 364.702 567.013 337.875 569.994C313.863 572.643 291.921 583.407 268.488 588.955C245.056 594.585 216.904 593.674 200.841 577.28C191.484 567.675 187.841 554.344 179.23 544.16C162.422 524.288 131.454 520.893 103.882 520.148C84.0928 519.568 61.1572 517.995 50.3104 503.008C41.1196 490.423 45.4252 472.29 57.2656 461.608C69.106 451.01 86.6596 447.036 103.22 447.781C119.862 448.443 135.843 453.246 151.575 458.048C236.776 431.138 300.284 407.043 389.294 419.96Z" fill="#90B49C"/>
<path d="M579.319 386.096C583.459 376.077 587.682 365.727 586.936 354.963C586.191 344.944 586.026 333.849 582.962 324.327C579.898 314.805 578.988 304.703 579.567 294.685C581.389 263.386 594.637 264.711 599.605 266.284C604.49 267.857 607.471 272.411 608.961 280.36C610.203 286.736 610.452 317.537 619.477 311.576C630.075 304.621 624.776 273.322 624.942 262.558C625.19 246.495 628.999 228.776 639.266 216.025C644.317 209.732 652.431 204.515 660.132 206.917C664.686 208.324 668.163 212.299 670.399 216.521C677.106 229.438 674.622 244.342 671.227 257.756C669.819 263.386 655.412 290.627 670.068 285.991C673.545 284.831 699.876 256.762 706.5 280.609C708.901 288.971 700.704 299.239 687.207 312.569C678.762 320.849 646.47 344.116 649.699 353.307C652.928 362.498 670.068 344.365 670.482 362.332C670.73 372.434 658.89 381.542 650.61 386.593C646.718 388.994 642.33 390.65 638.604 393.299C634.215 396.446 629.247 403.235 633.801 408.369C635.788 410.605 639.018 411.35 641.005 413.668C642.909 415.987 642.909 419.547 641.75 422.279C640.591 425.095 638.355 427.33 636.037 429.317C621.133 441.903 600.764 446.788 581.306 445.96C561.848 445.132 542.887 439.088 524.671 432.215" fill="#2A794A"/>
<g opacity="0.3">
<path d="M653.342 224.799C653.342 224.799 649.368 330.866 596.79 404.723" stroke="white" stroke-width="1.656" stroke-linecap="round" stroke-linejoin="round"/>
<path d="M692.341 288.223C692.341 288.223 661.622 320.929 633.553 329.291" stroke="white" stroke-width="1.656" stroke-linecap="round" stroke-linejoin="round"/>
<path d="M596.293 279.943C597.038 296.421 602.586 341.878 621.299 361.253" stroke="white" stroke-width="1.656" stroke-linecap="round" stroke-linejoin="round"/>
<path d="M658.145 367.713C658.145 367.713 646.222 381.706 604.573 393.05" stroke="white" stroke-width="1.656" stroke-linecap="round" stroke-linejoin="round"/>
<path d="M633.056 417.806C633.056 417.806 611.777 425.01 590.497 416.564" stroke="white" stroke-width="1.656" stroke-linecap="round" stroke-linejoin="round"/>
</g>
<path d="M552.823 439.083C552.823 439.083 481.698 439.083 464.475 439.083C447.253 439.083 450.068 418.631 498.009 427.739C486.252 422.357 486.169 415.154 487.163 413.167C488.073 411.428 491.468 410.269 493.455 410.434C499.5 411.014 504.137 414.74 509.519 417.721C499.831 411.428 493.869 399.919 494.201 388.327C494.366 385.18 495.029 381.785 497.347 379.633C499.997 377.231 504.219 375.575 507.78 376.321C514.238 377.563 526.079 388.409 530.881 392.963C506.703 370.773 497.513 335.749 512.913 327.717C538.995 314.303 558.702 390.479 558.702 390.479C558.702 390.479 545.702 333.265 567.479 332.933C589.172 332.602 571.536 399.422 571.536 399.422" fill="#2A794A"/>
<path d="M171.86 464.996C154.638 471.537 136.836 477.167 118.454 477.995C100.073 478.741 80.8632 474.187 66.87 462.263C64.7172 460.442 62.5644 458.372 61.488 455.722C60.3288 453.073 60.3288 449.761 62.2332 447.525C63.972 445.372 67.1184 444.627 69.0228 442.557C73.2456 437.672 68.6088 431.296 64.386 428.315C60.9084 425.831 56.7684 424.258 53.0424 422.023C45.342 417.22 34.164 408.609 34.4124 399.17C34.7436 382.196 50.8896 399.253 53.9532 390.641C57.0168 381.947 26.5464 360.005 18.5976 352.139C5.92919 339.637 -1.85401 329.949 0.381594 322.083C6.67439 299.561 31.4316 326.057 34.7436 327.134C48.5712 331.522 34.992 305.854 33.6672 300.555C30.438 287.804 28.0368 273.811 34.4124 261.639C36.5652 257.582 39.7944 253.856 44.1828 252.531C51.3864 250.295 59.004 255.263 63.8064 261.142C73.494 273.148 77.1372 289.874 77.3028 305.026C77.4684 315.128 72.5004 344.687 82.4364 351.229C91.0476 356.859 91.2132 327.879 92.3724 321.835C93.78 314.3 96.5952 309.994 101.149 308.504C105.869 307.096 118.372 305.854 120.11 335.331C120.69 344.77 119.779 354.292 116.881 363.317C113.983 372.26 113.818 382.775 113.155 392.132C112.41 402.316 116.467 412.169 120.359 421.526" fill="#2A794A"/>
<g opacity="0.3">
<path d="M50.5576 269.424C50.5576 269.424 54.2836 369.446 103.881 439.081L50.5576 269.424Z" fill="#2A794A"/>
<path d="M50.5576 269.424C50.5576 269.424 54.2836 369.446 103.881 439.081" stroke="white" stroke-width="1.656" stroke-linecap="round" stroke-linejoin="round"/>
<path d="M13.7949 329.289C13.7949 329.289 42.6921 360.091 69.1881 367.957L13.7949 329.289Z" fill="#2A794A"/>
<path d="M13.7949 329.289C13.7949 329.289 42.6921 360.091 69.1881 367.957" stroke="white" stroke-width="1.656" stroke-linecap="round" stroke-linejoin="round"/>
<path d="M104.295 321.422C103.633 336.988 98.4167 379.796 80.7803 398.177L104.295 321.422Z" fill="#2A794A"/>
<path d="M104.295 321.422C103.633 336.988 98.4167 379.796 80.7803 398.177" stroke="white" stroke-width="1.656" stroke-linecap="round" stroke-linejoin="round"/>
<path d="M46.0039 404.225C46.0039 404.225 57.2647 417.39 96.5947 428.154L46.0039 404.225Z" fill="#2A794A"/>
<path d="M46.0039 404.225C46.0039 404.225 57.2647 417.39 96.5947 428.154" stroke="white" stroke-width="1.656" stroke-linecap="round" stroke-linejoin="round"/>
<path d="M69.6025 451.418C69.6025 451.418 89.7229 458.291 109.761 450.342L69.6025 451.418Z" fill="#2A794A"/>
<path d="M69.6025 451.418C69.6025 451.418 89.7229 458.291 109.761 450.342" stroke="white" stroke-width="1.656" stroke-linecap="round" stroke-linejoin="round"/>
</g>
<path d="M127.728 434.112C127.728 434.112 111.085 371.019 131.537 371.35C152.071 371.681 139.817 425.667 139.817 425.667C139.817 425.667 158.364 353.796 182.956 366.547C197.529 374.082 188.835 407.119 166.065 428.068C170.536 423.762 181.714 413.495 187.841 412.336C191.153 411.673 195.21 413.164 197.694 415.482C199.847 417.469 200.509 420.699 200.592 423.679C201.006 434.526 195.293 445.456 186.185 451.335C191.236 448.519 195.624 445.042 201.337 444.545C203.242 444.379 206.388 445.456 207.216 447.112C208.21 448.933 208.127 455.723 197.032 460.774C242.241 452.245 244.89 471.455 228.661 471.455C212.35 471.455 145.282 471.455 145.282 471.455" fill="#A5B9F6"/>
<path d="M375.382 342.625C356.587 349.746 337.129 355.873 317.009 356.701C296.971 357.612 276.023 352.644 260.705 339.645C258.303 337.574 256.068 335.339 254.826 332.441C253.584 329.543 253.584 325.9 255.654 323.499C257.558 321.18 260.953 320.352 263.023 318.034C267.743 312.735 262.609 305.779 258.055 302.55C254.163 299.818 249.692 298.162 245.635 295.595C237.189 290.378 225.018 281.022 225.266 270.672C225.68 252.208 243.317 270.838 246.629 261.399C249.941 251.959 216.655 227.947 208.044 219.419C194.133 205.674 185.688 195.159 188.089 186.465C195.044 161.956 222.037 190.853 225.68 192.012C240.75 196.815 225.929 168.828 224.438 163.032C220.961 149.122 218.394 133.804 225.349 120.556C227.585 116.167 231.145 112.11 235.947 110.62C243.813 108.136 252.176 113.6 257.393 120.059C267.991 133.141 271.883 151.357 272.131 167.917C272.297 179.013 266.832 211.222 277.679 218.343C287.035 224.553 287.283 192.84 288.525 186.299C290.099 178.102 293.162 173.299 298.213 171.726C303.347 170.153 316.926 168.828 318.83 201.037C319.493 211.305 318.499 221.737 315.353 231.508C312.206 241.361 312.041 252.787 311.295 263.055C310.467 274.15 314.856 284.831 319.079 295.098" fill="#2A794A"/>
<g opacity="0.3">
<path d="M242.902 129.002C242.902 129.002 246.96 238.215 301.111 314.308" stroke="white" stroke-width="1.656" stroke-linecap="round" stroke-linejoin="round"/>
<path d="M202.745 194.414C202.745 194.414 234.375 228.031 263.272 236.642" stroke="white" stroke-width="1.656" stroke-linecap="round" stroke-linejoin="round"/>
<path d="M301.608 185.801C300.863 202.775 295.15 249.557 275.94 269.594" stroke="white" stroke-width="1.656" stroke-linecap="round" stroke-linejoin="round"/>
<path d="M237.935 276.221C237.935 276.221 250.189 290.628 293.162 302.303" stroke="white" stroke-width="1.656" stroke-linecap="round" stroke-linejoin="round"/>
<path d="M263.769 327.804C263.769 327.804 285.711 335.256 307.57 326.562" stroke="white" stroke-width="1.656" stroke-linecap="round" stroke-linejoin="round"/>
</g>
<path d="M327.11 308.842C327.11 308.842 308.977 240.035 331.333 240.366C353.689 240.697 340.358 299.651 340.358 299.651C340.358 299.651 360.644 221.239 387.388 235.067C403.369 243.264 393.847 279.365 369.007 302.218C373.892 297.498 386.146 286.403 392.77 285.078C396.413 284.333 400.802 285.989 403.534 288.473C405.935 290.708 406.598 294.186 406.681 297.498C407.095 309.338 400.885 321.179 390.949 327.72C396.496 324.574 401.216 320.765 407.509 320.185C409.579 320.02 413.056 321.179 413.967 323.001C414.961 324.988 414.961 332.44 402.789 337.987C452.221 328.631 455.036 349.662 437.317 349.662C419.597 349.662 346.319 349.662 346.319 349.662" fill="#2A794A"/>
<path d="M113.322 165.187C114.895 165.187 114.895 162.703 113.322 162.703C111.748 162.703 111.748 165.187 113.322 165.187Z" fill="#6287F6"/>
<path d="M124.582 156.99C126.155 156.99 126.155 154.506 124.582 154.506C123.009 154.506 123.009 156.99 124.582 156.99Z" fill="#6287F6"/>
<path d="M332.244 239.787C333.818 239.787 333.818 237.303 332.244 237.303C330.671 237.303 330.671 239.787 332.244 239.787Z" fill="#6287F6"/>
<path d="M107.194 146.714C108.767 146.714 108.767 144.23 107.194 144.23C105.62 144.23 105.62 146.714 107.194 146.714Z" fill="#6287F6"/>
<path d="M592.071 379.968C593.644 379.968 593.644 377.484 592.071 377.484C590.497 377.484 590.497 379.968 592.071 379.968Z" fill="#6287F6"/>
<path d="M603.332 391.226C604.905 391.226 604.905 388.742 603.332 388.742C601.676 388.742 601.676 391.226 603.332 391.226Z" fill="#6287F6"/>
<path d="M578.739 401.408C580.395 401.408 580.395 398.924 578.739 398.924C577.166 398.924 577.166 401.408 578.739 401.408Z" fill="#6287F6"/>
<path d="M548.103 90.4996C549.677 90.4996 549.677 88.0156 548.103 88.0156C546.447 88.0156 546.447 90.4996 548.103 90.4996Z" fill="#6287F6"/>
<path d="M565.492 94.5543C567.065 94.5543 567.065 92.0703 565.492 92.0703C563.836 92.0703 563.836 94.5543 565.492 94.5543Z" fill="#6287F6"/>
<path d="M549.097 107.884C550.67 107.884 550.67 105.4 549.097 105.4C547.524 105.4 547.524 107.884 549.097 107.884Z" fill="#6287F6"/>
<path d="M356.753 183.564C358.409 183.564 358.409 181.08 356.753 181.08C355.18 181.08 355.18 183.564 356.753 183.564Z" fill="#6287F6"/>
<path d="M359.817 167.171C361.473 167.171 361.473 164.688 359.817 164.688C358.243 164.688 358.243 167.171 359.817 167.171Z" fill="#6287F6"/>
<path d="M372.154 184.56C373.727 184.56 373.727 182.076 372.154 182.076C370.498 182.076 370.498 184.56 372.154 184.56Z" fill="#6287F6"/>
<path d="M351.702 464.839C353.275 464.839 353.275 462.355 351.702 462.355C350.046 462.355 350.046 464.839 351.702 464.839Z" fill="#6287F6"/>
<path d="M360.893 478.164C362.466 478.164 362.466 475.68 360.893 475.68C359.32 475.68 359.32 478.164 360.893 478.164Z" fill="#6287F6"/>
<path d="M610.452 483.3C612.108 483.3 612.108 480.816 610.452 480.816C608.879 480.816 608.879 483.3 610.452 483.3Z" fill="#6287F6"/>
<path d="M576.753 211.134C578.326 211.134 578.326 208.65 576.753 208.65C575.097 208.65 575.097 211.134 576.753 211.134Z" fill="#6287F6"/>
<path d="M133.773 110.951C135.429 110.951 135.429 108.467 133.773 108.467C132.199 108.467 132.199 110.951 133.773 110.951Z" fill="#6287F6"/>
<path d="M260.622 40.3219C262.195 40.3219 262.195 37.8379 260.622 37.8379C259.049 37.8379 259.049 40.3219 260.622 40.3219Z" fill="#6287F6"/>
<path d="M351.703 2.484C353.276 2.484 353.276 0 351.703 0C350.047 0 350.047 2.484 351.703 2.484Z" fill="#6287F6"/>
<path d="M384.408 27.0738C385.982 27.0738 385.982 24.5898 384.408 24.5898C382.835 24.5898 382.835 27.0738 384.408 27.0738Z" fill="#6287F6"/>
<path d="M117.461 470.963C119.034 470.963 119.034 468.479 117.461 468.479C115.805 468.479 115.805 470.963 117.461 470.963Z" fill="#6287F6"/>
<path d="M70.3479 436.189C72.0039 436.189 72.0039 433.705 70.3479 433.705C68.7747 433.705 68.7747 436.189 70.3479 436.189Z" fill="#6287F6"/>
<path d="M74.4881 443.394C76.0613 443.394 76.0613 440.91 74.4881 440.91C72.8321 440.91 72.8321 443.394 74.4881 443.394Z" fill="#6287F6"/>
<path d="M66.2912 448.519C67.8644 448.519 67.8644 446.035 66.2912 446.035C64.718 446.035 64.718 448.519 66.2912 448.519Z" fill="#6287F6"/>
<path d="M541.976 532.4C543.55 532.4 543.55 529.916 541.976 529.916C540.32 529.916 540.32 532.4 541.976 532.4Z" fill="#6287F6"/>
<path d="M113.322 359.515C114.895 359.515 114.895 357.031 113.322 357.031C111.748 357.031 111.748 359.515 113.322 359.515Z" fill="#6287F6"/>
<path d="M95.9328 556.914C97.506 556.914 97.506 554.43 95.9328 554.43C94.3596 554.43 94.3596 556.914 95.9328 556.914Z" fill="#6287F6"/>
<path d="M327.111 543.666C328.684 543.666 328.684 541.182 327.111 541.182C325.537 541.182 325.537 543.666 327.111 543.666Z" fill="#6287F6"/>
<path d="M638.108 556.914C639.681 556.914 639.681 554.43 638.108 554.43C636.534 554.43 636.452 556.914 638.108 556.914Z" fill="#6287F6"/>
<path d="M383.415 5.54064C384.988 5.54064 384.988 3.05664 383.415 3.05664C381.759 3.05664 381.759 5.54064 383.415 5.54064Z" fill="#6287F6"/>
<path d="M472.342 149.789C473.998 149.789 473.998 147.305 472.342 147.305C470.769 147.305 470.769 149.789 472.342 149.789Z" fill="#6287F6"/>
<path d="M503.061 128.339C504.634 128.339 504.634 125.855 503.061 125.855C501.488 125.855 501.488 128.339 503.061 128.339Z" fill="#6287F6"/>
<path d="M41.2024 207.078C42.7756 207.078 42.8584 204.594 41.2024 204.594C39.6292 204.594 39.6292 207.078 41.2024 207.078Z" fill="#6287F6"/>
<path d="M648.292 178.433C649.948 178.433 649.948 175.949 648.292 175.949C646.719 175.949 646.719 178.433 648.292 178.433Z" fill="#6287F6"/>
<path d="M360.397 144.154C435.91 187.955 488.737 266.035 501.405 352.396C501.819 355.045 496.272 352.23 495.775 352.064C410.325 320.932 353.938 236.972 357.416 146.141C357.499 144.65 358.989 143.243 360.397 144.154Z" fill="#2A794A"/>
<path d="M370.084 166.757C405.577 216.547 441.099 266.365 476.647 316.211C476.647 316.211 476.675 316.211 476.73 316.211C477.144 316.459 477.393 316.873 477.393 317.205C487.715 331.722 498.065 346.24 508.443 360.757C509.519 362.248 507.283 364.152 506.207 362.662C495.664 347.923 485.148 333.157 474.66 318.364C457.051 307.986 439.443 297.581 421.834 287.148C420.178 286.237 421.834 283.836 423.407 284.747C439.084 294.021 454.788 303.294 470.52 312.568C436.296 264.599 402.072 216.63 367.848 168.661C366.772 167.088 369.007 165.184 370.084 166.757Z" fill="#FAEDEC"/>
<path d="M431.77 258.994C433.343 260.071 431.77 262.472 430.197 261.396C415.679 251.846 401.189 242.296 386.727 232.747C385.153 231.753 386.809 229.352 388.383 230.346C402.845 239.895 417.307 249.445 431.77 258.994Z" fill="#FAEDEC"/>
<path d="M402.707 181.991L407.095 214.366C407.178 215.111 406.847 215.608 406.433 215.856C407.592 217.016 406.019 219.168 404.611 218.092C391.584 208.266 378.529 198.441 365.447 188.615C363.957 187.539 365.613 185.138 367.103 186.214C379.468 195.543 391.805 204.844 404.115 214.118C402.679 203.574 401.244 193.059 399.809 182.571C399.561 180.749 402.459 180.17 402.707 181.991Z" fill="#FAEDEC"/>
<path d="M436.241 220.162L434.668 256.511C434.585 258.416 431.687 258.167 431.77 256.346L433.343 219.996C433.343 218.092 436.241 218.34 436.241 220.162Z" fill="#FAEDEC"/>
<path d="M470.686 277.544C473.17 288.694 474.219 299.983 473.832 311.409C473.749 313.231 470.851 313.065 470.934 311.244C471.321 300.038 470.299 288.998 467.871 278.124C467.457 276.302 470.272 275.722 470.686 277.544Z" fill="#FAEDEC"/>
<path d="M416.701 368.951C410.905 361.581 405.606 351.811 408.172 337.983C411.07 323.079 421.834 310.08 431.936 298.488C445.184 283.253 456.031 269.756 459.012 250.547C461.082 236.719 460.171 223.14 466.464 208.401C473.833 191.262 488.571 179.09 501.902 172.052C517.468 163.772 533.2 160.874 548.684 148.951C558.04 141.83 565.327 132.557 570.295 120.882C573.938 112.353 576.339 103.825 580.065 95.3794C591.906 68.0554 616.497 51.8266 632.56 57.871C649.452 59.2786 659.056 76.8322 652.184 102.583C646.636 123.2 631.65 138.932 619.478 156.651C606.313 175.778 604.16 192.007 603.663 210.389C603.415 222.809 603.498 235.974 597.95 249.967C592.485 263.96 582.218 275.055 571.868 284.743C559.282 296.583 543.799 308.589 537.092 326.474C533.532 336.079 532.704 345.435 528.812 355.123C526.08 361.664 522.271 367.957 517.882 373.67C494.202 404.223 464.394 406.128 445.764 395.529C434.586 389.237 424.981 379.383 416.701 368.951Z" fill="#2A794A"/>
<path d="M628.42 99.3547C609.652 125.961 590.967 152.65 572.364 179.422C581.086 177.38 589.807 175.338 598.529 173.295C601.013 172.716 601.924 176.524 599.44 177.104L570.377 183.976C569.963 184.059 569.632 183.976 569.383 183.894C553.651 206.581 538.085 229.351 522.519 252.121C541.176 247.429 559.834 242.737 578.491 238.045C580.975 237.382 581.803 241.274 579.402 241.854C559.309 246.932 539.244 251.983 519.207 257.006C505.213 277.54 491.386 298.24 477.558 318.858C494.781 314.718 512.003 310.578 529.225 306.438C531.709 305.858 532.62 309.667 530.136 310.329C511.534 314.8 492.904 319.272 474.246 323.743C473.86 324.35 473.446 324.957 473.004 325.564C473.004 325.62 473.004 325.647 473.004 325.647C473.004 326.641 472.425 327.138 471.762 327.386C463.041 340.413 454.347 353.468 445.68 366.55C463.234 364.232 480.539 361.003 497.679 356.78C500.163 356.118 501.073 360.009 498.589 360.589C480.208 365.226 461.578 368.62 442.782 370.939C431.963 387.278 421.171 403.672 410.407 420.122C409 422.275 405.688 420.205 407.013 418.052C417.666 401.823 428.347 385.594 439.056 369.366C439.056 369.2 439.056 369.007 439.056 368.786C438.063 368.786 437.069 368.124 437.069 366.882C437.455 348.058 437.814 329.208 438.145 310.329C438.145 307.762 442.12 307.928 442.12 310.495L441.043 366.385C450.372 352.364 459.729 338.343 469.113 324.322C469.278 303.788 469.444 283.254 469.609 262.719C469.609 260.235 473.584 260.401 473.501 262.885C473.391 281.377 473.253 299.896 473.087 318.444C487.08 297.495 501.073 276.63 515.232 255.847C515.067 255.598 514.984 255.267 514.984 254.936C514.266 231.2 513.549 207.464 512.831 183.728C512.748 181.244 516.723 181.41 516.805 183.894C517.468 206.139 518.13 228.385 518.793 250.63C534.028 228.191 549.429 205.753 564.829 183.479C564.747 183.231 564.664 182.9 564.747 182.569L570.791 137.194C571.122 134.627 575.097 134.793 574.765 137.36C572.999 150.442 571.233 163.552 569.466 176.69C587.903 150.139 606.45 123.643 625.108 97.2019C626.598 95.1319 629.91 97.2847 628.42 99.3547Z" fill="#FAEDEC"/>
<path d="M597.618 428.483L414.465 535.212L412.478 494.557L595.797 390.561L597.618 428.483Z" fill="#BF4D17"/>
<path d="M412.478 494.558L222.617 435.935L425.726 347.174L595.797 390.561L412.478 494.558Z" fill="#FF6822"/>
<path d="M222.617 435.936L412.478 494.558L414.382 534.799L224.604 476.176L222.617 435.936Z" fill="white"/>
<path d="M222.617 435.936L412.478 494.558L412.643 498.698L222.783 439.993L222.617 435.936Z" fill="#BF4D17"/>
<path d="M224.438 472.531L414.216 531.154L414.464 535.211L224.604 476.588L224.438 472.531Z" fill="#BF4D17"/>
<path d="M399.229 494.475L412.643 498.697L414.216 531.155L400.803 527.098L399.229 494.475Z" fill="#8F3B14"/>
<path d="M240.585 457.463L253.999 461.603L254.495 472.946L247.54 465.246L241.165 468.889L240.585 457.463Z" fill="#8F3B14"/>
<path d="M572.282 376.898L411.567 470.38L409.828 435.19L570.709 345.352L572.282 376.898Z" fill="white"/>
<path d="M570.874 348.332L409.994 438.833L409.828 435.19L570.709 345.352L570.874 348.332Z" fill="#52695B"/>
<path d="M572.365 379.135L411.567 470.878L411.401 467.234L572.199 376.154L572.365 379.135Z" fill="#52695B"/>
<g style="mix-blend-mode:multiply">
<path d="M572.612 384.6L412.726 476.756L411.566 470.96L566.154 382.695L572.612 384.6Z" fill="#E2D6D6"/>
</g>
<path d="M409.828 435.189L252.508 387.248L252.922 395.114L245.222 384.764L421.337 307.926L570.708 345.351L409.828 435.189Z" fill="#52695B"/>
<path d="M247.457 416.31L246.381 393.457C246.133 389.566 250.19 386.751 254.164 387.91L409.911 436.017L411.567 469.882C411.567 470.296 411.07 470.627 410.656 470.461L251.515 421.361C249.196 420.616 247.623 418.629 247.457 416.31Z" fill="white"/>
<path d="M385.981 437.094L397.573 440.654L398.07 459.698L392.026 452.991L386.478 456.221L385.981 437.094Z" fill="#52695B"/>
<path d="M260.126 423.845L246.96 419.788L245.222 384.764L258.47 388.821L260.126 423.845Z" fill="#52695B"/>
<path d="M249.776 420.699L246.96 419.788L245.222 384.764L248.037 385.757L249.776 420.699Z" fill="#52695B"/>
<path d="M245.222 384.764L409.828 435.189L409.994 438.749L245.387 388.324L245.222 384.764Z" fill="#52695B"/>
<path d="M246.712 416.477L411.484 467.233L411.65 470.793L246.877 419.871L246.712 416.477Z" fill="#52695B"/>
<g style="mix-blend-mode:multiply">
<path d="M254.164 422.105L411.484 470.792L412.726 476.753L247.54 425.169L254.164 422.105Z" fill="#E2D6D6"/>
</g>
<path d="M346.32 360.664C351.95 368.448 345.492 389.23 329.677 412.332C315.104 433.611 292.583 456.795 264.348 473.272C205.394 507.717 147.186 506.227 136.174 490.743L81.1943 410.096L294.736 285.316C294.736 285.316 345.906 360.085 346.32 360.664Z" fill="#3D3A3A"/>
<path d="M341.765 255.34L225.183 413.24L218.973 404.049L335.886 246.646L341.765 255.34Z" fill="#333030"/>
<path d="M335.887 246.646L272.048 332.51L218.973 404.049L44.0167 443.379L36.6475 444.621L160.765 288.709L335.887 246.646Z" fill="#3D3A3A"/>
<path d="M36.6475 444.621L218.973 404.049L225.183 413.24L42.1951 452.818L36.6475 444.621Z" fill="#333030"/>
<g style="mix-blend-mode:multiply">
<path d="M335.888 246.65L272.049 332.514L268.571 337.234C278.921 269.586 160.766 288.713 160.766 288.713L335.888 246.65Z" fill="#E2D6D6"/>
</g>
<g style="mix-blend-mode:multiply">
<path d="M346.32 360.668C351.951 368.451 345.492 389.234 329.677 412.335C329.677 412.335 334.563 380.705 321.315 361.165C303.595 335.165 280.163 339.057 280.163 339.057L306.659 303.039C306.659 303.039 345.906 360.088 346.32 360.668Z" fill="#EEE1E1"/>
</g>
<path d="M198.356 335.745C199.019 336.739 199.019 337.981 198.439 339.305C197.528 341.707 194.962 344.356 191.401 346.426C185.771 349.738 179.726 350.318 177.988 347.668C176.663 345.764 177.988 342.7 181.051 339.885C182.128 338.891 183.452 337.898 184.943 336.987C190.573 333.675 196.535 333.178 198.356 335.745Z" fill="#FF6822"/>
<path d="M110.671 455.228C119.696 427.738 131.123 416.974 131.123 416.974L188.172 341.709" stroke="#FF6822" stroke-width="3.726"/>
<path d="M198.357 335.745C199.019 336.739 199.019 337.981 198.44 339.305C190.822 335.248 184.033 338.063 181.052 339.885C182.128 338.891 183.453 337.898 184.943 336.987C190.574 333.675 196.535 333.178 198.357 335.745Z" fill="#BF4D17"/>
<path d="M126.734 487.187C131.288 505.734 131.453 521.466 127.148 522.377C122.842 523.287 115.639 508.963 111.085 490.416C106.531 471.868 106.365 456.136 110.671 455.226C111.913 454.977 113.32 455.888 114.811 457.793C118.785 462.595 123.422 473.773 126.734 487.187Z" fill="#FF6822"/>
<path d="M126.733 487.185C131.287 505.732 131.453 521.464 127.147 522.375C127.396 481.306 110.753 461.269 110.753 461.269L114.81 457.791C118.785 462.593 123.421 473.771 126.733 487.185Z" fill="#BF4D17"/>
<path d="M118.785 454.814C119.448 457.547 118.371 460.362 116.219 462.101C115.308 462.846 114.066 463.425 112.741 463.674C108.435 464.585 104.13 462.101 103.136 458.126C102.474 455.394 103.467 452.744 105.537 450.923C106.531 450.095 107.773 449.515 109.181 449.184C113.486 448.273 117.792 450.84 118.785 454.814Z" fill="#FF6822"/>
<path d="M118.785 454.814C119.448 457.547 118.371 460.362 116.218 462.101C116.108 461.825 115.998 461.493 115.887 461.107C113.238 451.502 107.11 450.923 105.537 450.923C106.531 450.095 107.773 449.515 109.18 449.184C113.486 448.273 117.792 450.84 118.785 454.814Z" fill="#BF4D17"/>
<path d="M609.21 439.248L584.453 446.866L525.251 253.528L549.925 245.91L609.21 439.248Z" fill="#EBC827"/>
<path d="M594.803 443.721L591.987 444.549L532.537 250.465L535.269 249.555L594.803 443.721Z" fill="#3D3A3A"/>
<path d="M601.593 441.568L598.861 442.478L539.41 248.312L542.143 247.484L601.593 441.568Z" fill="#3D3A3A"/>
<path d="M610.452 443.472L585.198 451.172L583.625 446.287L608.962 438.504L610.452 443.472Z" fill="#3D3A3A"/>
<path d="M606.975 454.071L593.975 458.045C590.58 459.122 587.02 457.135 585.943 453.74L585.198 451.173L610.452 443.473L611.197 445.957C612.274 449.434 610.369 452.995 606.975 454.071Z" fill="#FF6822"/>
<path d="M549.925 245.911L525.251 253.529L529.639 236.224L531.544 228.523L537.257 233.905L549.925 245.911Z" fill="#FBE5C6"/>
<path d="M537.257 233.905L529.64 236.224L531.544 228.523L537.257 233.905Z" fill="#3D3A3A"/>
<path d="M163.994 139.429L219.636 174.123C221.706 175.365 222.368 178.097 221.044 180.084L184.198 239.286C182.956 241.356 180.223 242.019 178.153 240.694L89.6401 185.549C87.5701 184.307 86.9077 181.575 88.2325 179.587L125.492 119.64L127.397 116.659L129.632 112.933C130.957 110.863 133.607 110.284 135.677 111.526L161.179 127.423C163.249 128.665 163.912 131.398 162.587 133.468C161.345 135.455 161.924 138.187 163.994 139.429Z" fill="#D1B223"/>
<path d="M178.153 240.692L89.6401 185.548C87.5701 184.306 86.9077 181.573 88.2325 179.586L131.62 124.441C132.862 122.371 135.594 121.792 137.581 123.034L226.177 178.178C228.247 179.42 228.91 182.153 227.585 184.223L184.198 239.285C182.956 241.355 180.223 242.017 178.153 240.692Z" fill="#EBC827"/>
<g style="mix-blend-mode:multiply">
<path d="M379.606 342.12C391.115 337.152 408.42 349.986 421.006 348.744C428.044 347.999 433.923 343.362 440.381 340.381C447.667 336.987 456.61 335.745 463.648 339.636C470.686 343.445 474.495 353.464 469.858 360.088C465.883 365.801 457.935 366.795 450.979 367.209C441.927 367.761 432.901 368.34 423.904 368.947C408.917 369.858 392.605 370.438 380.682 361.33C376.625 358.266 373.23 353.629 373.81 348.661C374.307 343.611 380.765 339.636 384.657 342.783" fill="#F2E5E5"/>
</g>
<path d="M489.233 167.995C487.825 169.734 488.985 168.244 482.112 170.314C472.342 173.212 472.839 173.46 465.221 173.708C464.145 173.791 463.234 173.543 462.489 173.046C462.213 172.88 461.964 172.687 461.743 172.466C461.302 172.08 460.971 171.611 460.75 171.059C458.763 168.161 455.533 162.116 451.145 149.696C447.999 140.754 447.253 136.862 446.674 134.13C445.597 129.245 449.323 127.175 451.89 128.334C455.947 130.073 459.591 134.792 460.253 137.359C463.896 150.193 466.38 160.295 468.036 164.932C476.316 164.269 485.259 164.186 487.743 163.607C489.73 163.11 490.309 166.505 489.233 167.995Z" fill="#BF4D17"/>
<path d="M422.993 146.882C422.082 144.149 421.089 135.952 421.668 133.385C423.821 123.946 437.814 127.755 444.438 128.749C445.68 128.914 446.922 129.163 448.082 129.494C450.317 130.239 455.865 134.793 456.61 137.111C459.756 146.468 465.221 147.213 460.336 157.811C453.298 173.212 460.419 198.218 460.253 206.001C458.1 205.835 420.675 203.269 420.675 203.269C420.84 202.358 423.49 193.829 423.821 192.753C424.732 190.021 425.477 187.205 426.057 184.307C427.05 179.588 427.547 174.62 427.133 169.817C426.471 163.276 425.726 156.652 423.987 150.277C423.711 149.173 423.38 148.041 422.993 146.882Z" fill="#FF6822"/>
<path d="M450.98 349.078C450.98 349.078 450.318 347.919 448.827 347.671C447.916 347.505 445.929 348.25 443.694 351.48C444.522 332.187 439.057 298.322 444.273 282.259C441.955 270.418 439.305 245.082 438.229 233.821C436.076 243.674 428.624 266.361 423.904 279.609C423.656 281.1 423.242 282.673 422.331 284.494C416.452 296.5 403.536 336.493 399.727 347.836C399.727 347.836 399.396 345.766 397.988 345.601C395.173 345.27 395.835 347.091 393.931 347.34C393.186 347.422 392.606 347.505 392.772 346.429C394.428 337.9 400.886 288.883 409.497 276.049C409.552 275.662 409.608 275.248 409.663 274.807C411.236 266.941 417.198 223.802 418.274 217.758C418.44 213.949 419.102 209.064 420.675 203.268L460.254 206C460.254 206 460.916 217.923 460.005 231.254C459.591 246.572 458.846 272.157 458.846 278.119C458.929 279.609 458.846 280.934 458.68 282.093C458.68 282.811 458.653 283.556 458.598 284.329C457.107 297.66 452.47 323.245 450.98 349.078Z" fill="#072C6E"/>
<path d="M451.476 349.076C451.89 349.987 453.96 352.14 456.858 353.713C459.756 355.203 466.049 356.28 462.406 357.273C458.846 358.184 454.788 357.191 452.718 356.694C450.648 356.197 448.661 356.031 446.177 355.866C442.948 355.617 442.948 355.452 443.61 351.809C444.521 346.841 450.234 346.095 451.476 349.076Z" fill="#21103F"/>
<path d="M399.643 347.091C400.057 348.002 400.223 352.307 403.121 353.881C406.102 355.371 412.395 356.447 408.751 357.358C405.191 358.352 401.051 357.358 399.064 356.861C396.994 356.365 396.828 354.046 394.344 353.881C391.115 353.632 391.115 353.467 391.777 349.823C392.688 344.855 398.401 344.193 399.643 347.091Z" fill="#21103F"/>
<path d="M430.031 145.307C430.583 145.638 431.135 145.969 431.687 146.3L428.458 156.236C428.872 153.007 429.452 149.364 430.031 145.307Z" fill="#FF4D2C"/>
<path d="M442.7 116.327C442.7 116.493 441.955 122.703 441.955 128.83C441.872 132.225 438.808 135.123 436.407 134.957C436.352 134.957 436.324 134.929 436.324 134.874C433.84 134.626 431.522 131.231 431.853 127.753C432.433 120.798 433.757 111.69 433.84 111.193L442.7 116.327Z" fill="#D68952"/>
<path d="M444.604 85.4428C450.152 85.8568 455.12 91.4872 455.451 95.8756C455.948 104.487 454.292 112.436 453.132 115.83C452.056 119.06 448.744 123.117 444.77 122.786C441.044 122.537 436.241 120.798 433.095 117.321C429.866 113.926 429.783 112.187 429.534 104.238C428.955 85.0288 439.139 85.1116 444.604 85.4428Z" fill="#EB975A"/>
<path fill-rule="evenodd" clip-rule="evenodd" d="M455.45 99.6009C455.119 98.1933 453.794 97.1168 452.304 96.0404C448.412 99.2696 441.374 100.843 435.744 102.085L428.623 106.887C423.986 106.556 424.235 115.416 420.674 118.396C418.522 120.135 417.031 123.447 414.713 124.938C412.394 126.511 409.082 127.008 406.93 125.186C412.974 122.205 415.375 115.581 413.057 109.206C411.98 106.308 409.993 103.824 408.917 100.926C407.84 98.0277 407.84 94.7985 408.751 91.8177H408.586C409.828 86.2701 412.394 82.6269 416.12 80.9709C422.91 77.9901 431.273 82.5441 431.356 82.5441L431.19 82.7925C432.68 83.1789 434.116 83.6481 435.496 84.2001C439.801 82.7925 445.266 82.7097 449.572 85.8561C451.89 86.8497 454.622 89.6648 455.45 91.4036C457.024 94.7984 456.113 101.919 455.45 99.6009ZM430.196 82.4612C427.795 81.3848 421.585 79.0665 416.286 81.3849C413.222 82.7925 410.987 85.6076 409.579 89.7476C410.821 87.2636 412.726 85.0281 415.127 83.6205C419.681 81.0537 424.98 81.2192 430.196 82.4612Z" fill="#0F0F0F"/>
<path d="M431.853 104.57C432.763 107.303 432.349 109.952 430.859 110.449C429.451 110.946 427.464 109.042 426.553 106.309C425.643 103.494 426.057 100.844 427.547 100.348C429.037 99.9336 430.942 101.755 431.853 104.57Z" fill="#EB975A"/>
<path d="M485.755 178.591L462.488 183.559V152.592L485.755 147.541V178.591Z" fill="#E0D4D4"/>
<path d="M454.291 167.995C456.112 166.504 458.596 165.097 460.335 164.848C462.074 164.683 459.093 167.001 457.768 168.243C456.444 169.402 452.718 169.237 454.291 167.995Z" fill="#EB975A"/>
<path d="M456.858 167.995C461.661 167.167 464.145 166.008 466.38 166.836C468.616 167.664 465.387 170.727 463.731 171.307C462.075 171.804 456.361 174.039 454.623 172.963C452.884 171.804 453.298 168.492 456.858 167.995Z" fill="#EB975A"/>
<path d="M455.036 172.466C453.546 174.205 451.31 172.549 444.107 174.288C433.757 176.854 430.776 177.02 422.827 176.937C421.337 176.937 420.177 176.275 419.349 175.447C418.77 175.033 418.356 174.536 418.19 173.874C417.362 170.976 416.451 164.352 417.611 148.868C418.273 139.429 419.101 135.62 419.598 132.805C420.591 127.92 424.814 127.506 426.719 129.576C429.699 132.805 431.19 138.518 430.859 141.168C429.203 153.091 427.629 162.53 427.133 167.912C435.909 167.746 451.145 168.243 453.711 167.829C455.781 167.415 456.195 170.976 455.036 172.466Z" fill="#BF4D17"/>
<path d="M485.424 165.592C485.424 164.267 485.589 162.115 486.252 160.21C486.583 159.134 487.825 158.389 488.736 159.382C489.481 160.21 490.806 163.605 490.226 165.261C489.729 166.669 488.487 167.911 487.328 168.49C486.086 168.987 485.424 167.828 485.424 165.592Z" fill="#EB975A"/>
<path d="M560.854 153.339L549.097 142.906L617.407 124.027L593.643 181.656L574.433 164.517L566.485 171.886L560.854 153.339Z" fill="#2A794A"/>
<g style="mix-blend-mode:multiply">
<path d="M617.407 124.027L574.434 164.517L566.485 171.886L560.854 153.339L617.407 124.027Z" fill="#2A794A"/>
</g>
<path d="M206.637 47.3571L196.618 43.2999L184.695 66.0699L142.219 20.3643L212.847 14.1543L205.478 27.9819L206.637 47.3571Z" fill="#FF6822"/>
<g style="mix-blend-mode:multiply">
<path d="M205.478 27.9828L206.637 47.358L196.618 43.3008L142.219 20.3652L205.478 27.9828Z" fill="#2A794A"/>
</g>
<path d="M557.792 178.674C556.853 179.226 555.915 179.805 554.977 180.413" stroke="#2A794A" stroke-width="1.242" stroke-linecap="round" stroke-linejoin="round"/>
<path d="M509.435 313.72C513.079 310.408 515.728 305.689 516.639 300.804C518.378 291.696 515.563 282.339 512.168 273.645C508.773 264.951 504.716 256.34 503.805 247.066C502.315 231.748 509.767 216.679 520.365 205.501C525.913 199.622 532.205 194.737 538.912 190.266" stroke="#2A794A" stroke-width="1.242" stroke-linecap="round" stroke-linejoin="round" stroke-dasharray="6.62 6.62"/>
<path d="M501.239 318.107C500.19 318.383 499.086 318.494 497.927 318.439" stroke="#2A794A" stroke-width="1.242" stroke-linecap="round" stroke-linejoin="round"/>
<path d="M218.146 56.2109C218.864 57.0941 219.554 57.9773 220.216 58.8605" stroke="#2A794A" stroke-width="1.242" stroke-linecap="round" stroke-linejoin="round"/>
<path d="M138.161 278.196C137.582 266.025 133.193 253.936 125.576 244.331C115.309 231.331 99.2454 222.969 82.6854 222.058C69.6858 221.395 55.4442 224.707 44.4318 217.752C36.9798 213.033 32.6742 204.339 31.3494 195.562C29.9418 186.868 31.101 177.925 32.2602 169.149C34.4958 152.009 36.8142 134.621 43.4382 118.641C50.0622 102.743 61.6542 88.0047 77.6346 81.5463C91.4622 75.8331 107.194 76.8267 121.85 79.8903C142.301 84.1131 161.925 92.3103 179.396 103.82C192.478 112.348 207.962 123.36 222.121 116.654C232.719 111.686 236.942 98.1891 234.789 86.6799C234.044 82.6227 232.636 78.8139 230.815 75.0879" stroke="#2A794A" stroke-width="1.242" stroke-linecap="round" stroke-linejoin="round" stroke-dasharray="6.62 6.62"/>
<path d="M137.831 287.967C137.72 289.071 137.555 290.147 137.334 291.196" stroke="#2A794A" stroke-width="1.242" stroke-linecap="round" stroke-linejoin="round"/>
<path d="M244.394 546.558C244.228 545.399 244.228 544.295 244.394 543.246" stroke="#2A794A" stroke-width="1.242" stroke-linecap="round" stroke-linejoin="round"/>
<path d="M532.455 504.744C514.57 505.655 497.182 516.75 484.1 529.915C467.954 546.31 455.534 566.43 437.649 580.92C415.872 598.557 386.644 606.505 358.989 602.448C331.334 598.308 305.666 582.162 290.016 559.061C285.794 552.851 282.316 546.227 277.182 540.762C272.38 535.546 265.756 531.489 258.801 531.654" stroke="#2A794A" stroke-width="1.242" stroke-linecap="round" stroke-linejoin="round" stroke-dasharray="6.62 6.62"/>
<path d="M542.474 505.24C543.522 505.461 544.599 505.709 545.703 505.985" stroke="#2A794A" stroke-width="1.242" stroke-linecap="round" stroke-linejoin="round"/>
<path d="M533.201 72.3606C522.354 61.5966 505.131 61.5138 489.896 61.9278C474.578 62.259 457.19 61.431 447.254 49.839C441.375 43.1322 439.388 33.9414 435.248 25.9926C431.191 18.0438 422.994 10.5918 414.3 12.579" stroke="#2A794A" stroke-width="1.242" stroke-linecap="round" stroke-linejoin="round" stroke-dasharray="6.62 6.62"/>
<path d="M288.774 157.649L285.628 156.325L302.436 116.746L305.583 118.071L288.774 157.649Z" fill="#3D3A3A"/>
<path d="M270.972 195.9C266.584 193.996 264.514 188.945 266.418 184.557L281.984 147.876C283.806 143.488 288.857 141.418 293.245 143.239C297.634 145.144 299.704 150.195 297.882 154.583L282.316 191.346C280.411 195.735 275.36 197.722 270.972 195.9Z" fill="#2A794A"/>
<path d="M360.892 95.713C351.536 117.903 325.868 128.336 303.595 118.897C281.322 109.458 270.972 83.7898 280.411 61.5994C289.85 39.3262 315.518 28.9762 337.708 38.3326C359.982 47.7718 370.332 73.4398 360.892 95.713Z" stroke="#2A794A" stroke-width="11.592"/>
<path d="M355.263 92.4832C347.231 111.444 325.289 120.304 306.328 112.272C287.367 104.241 278.507 82.2988 286.539 63.3376C294.57 44.3764 316.512 35.434 335.474 43.5484C354.435 51.58 363.294 73.4392 355.263 92.4832Z" fill="#D0EAFF"/>
<path opacity="0.3" d="M330.34 61.6814C330.34 68.3882 323.799 73.7702 315.685 73.7702C307.57 73.7702 300.946 68.3882 300.946 61.6814C300.946 54.9746 307.57 49.5098 315.685 49.5098C323.799 49.5098 330.34 54.9746 330.34 61.6814Z" fill="white"/>
</svg>
